# MagicaVoxel @ Ephtracy

# group
o 

# material
mtllib DrawerClosed.mtl
usemtl palette

# normals
vn -1 0 0
vn 1 0 0
vn 0 0 1
vn 0 0 -1
vn 0 -1 0
vn 0 1 0

# texcoords
vt 0.00195312 0.5
vt 0.00585938 0.5

# verts
v -1.4 2.5 -0.1
v -1.4 2.5 -2
v -1.4 2.6 -0.1
v -1.4 2.6 -2
v -1.2 0 -0.3
v -1.2 0 -0.4
v -1.2 0 -0.5
v -1.2 0 -1.8
v -1.2 0 -1.9
v -1.2 0 -2
v -1.2 0.3 -0.4
v -1.2 0.3 -0.5
v -1.2 0.3 -1.8
v -1.2 0.3 -1.9
v -1.2 0.4 -0.4
v -1.2 0.4 -1.9
v -1.2 2.5 -0.3
v -1.2 2.5 -0.4
v -1.2 2.5 -1.9
v -1.2 2.5 -2
v -0.9 0.6 -0.3
v -0.9 0.6 -0.4
v -0.9 1.4 -0.3
v -0.9 1.4 -0.4
v -0.9 1.8 -0.3
v -0.9 1.8 -0.4
v -0.9 2.3 -0.3
v -0.9 2.3 -0.4
v -0.1 0.9 -0.2
v -0.1 0.9 -0.3
v -0.1 1 -0.2
v -0.1 1 -0.3
v -0.1 2 -0.2
v -0.1 2 -0.3
v -0.1 2.1 -0.2
v -0.1 2.1 -0.3
v 0.9 0 -0.3
v 0.9 0 -0.5
v 0.9 0 -1.8
v 0.9 0 -2
v 0.9 0.3 -0.3
v 0.9 0.3 -0.4
v 0.9 0.3 -0.5
v 0.9 0.3 -1.8
v 0.9 0.3 -1.9
v 0.9 0.3 -2
v 0.9 0.5 -0.3
v 0.9 0.5 -0.4
v 0.9 1.5 -0.3
v 0.9 1.5 -0.4
v 0.9 1.7 -0.3
v 0.9 1.7 -0.4
v 0.9 2.4 -0.3
v 0.9 2.4 -0.4
v -1 0 -0.3
v -1 0 -0.5
v -1 0 -1.8
v -1 0 -2
v -1 0.3 -0.3
v -1 0.3 -0.4
v -1 0.3 -0.5
v -1 0.3 -1.8
v -1 0.3 -1.9
v -1 0.3 -2
v -1 0.5 -0.3
v -1 0.5 -0.4
v -1 1.5 -0.3
v -1 1.5 -0.4
v -1 1.7 -0.3
v -1 1.7 -0.4
v -1 2.4 -0.3
v -1 2.4 -0.4
v 0 0.9 -0.2
v 0 0.9 -0.3
v 0 1 -0.2
v 0 1 -0.3
v 0 2 -0.2
v 0 2 -0.3
v 0 2.1 -0.2
v 0 2.1 -0.3
v 0.8 0.6 -0.3
v 0.8 0.6 -0.4
v 0.8 1.4 -0.3
v 0.8 1.4 -0.4
v 0.8 1.8 -0.3
v 0.8 1.8 -0.4
v 0.8 2.3 -0.3
v 0.8 2.3 -0.4
v 1.1 0 -0.3
v 1.1 0 -0.4
v 1.1 0 -0.5
v 1.1 0 -1.8
v 1.1 0 -1.9
v 1.1 0 -2
v 1.1 0.3 -0.4
v 1.1 0.3 -0.5
v 1.1 0.3 -1.8
v 1.1 0.3 -1.9
v 1.1 0.4 -0.4
v 1.1 0.4 -1.9
v 1.1 2.5 -0.3
v 1.1 2.5 -0.4
v 1.1 2.5 -1.9
v 1.1 2.5 -2
v 1.3 2.5 -0.1
v 1.3 2.5 -2
v 1.3 2.6 -0.1
v 1.3 2.6 -2
v -1.4 2.5 -0.1
v -1.4 2.6 -0.1
v 1.3 2.5 -0.1
v 1.3 2.6 -0.1
v -0.1 0.9 -0.2
v -0.1 1 -0.2
v -0.1 2 -0.2
v -0.1 2.1 -0.2
v 0 0.9 -0.2
v 0 1 -0.2
v 0 2 -0.2
v 0 2.1 -0.2
v -1.2 0 -0.3
v -1.2 2.5 -0.3
v -1.1 0 -0.3
v -1.1 0.3 -0.3
v -1.1 0.4 -0.3
v -1.1 2.5 -0.3
v -1 0 -0.3
v -1 0.3 -0.3
v -1 0.5 -0.3
v -1 1.5 -0.3
v -1 1.7 -0.3
v -1 2.4 -0.3
v -0.9 0.6 -0.3
v -0.9 1.4 -0.3
v -0.9 1.8 -0.3
v -0.9 2.3 -0.3
v -0.1 0.9 -0.3
v -0.1 1 -0.3
v -0.1 2 -0.3
v -0.1 2.1 -0.3
v 0 0.9 -0.3
v 0 1 -0.3
v 0 2 -0.3
v 0 2.1 -0.3
v 0.8 0.6 -0.3
v 0.8 1.4 -0.3
v 0.8 1.8 -0.3
v 0.8 2.3 -0.3
v 0.9 0 -0.3
v 0.9 0.3 -0.3
v 0.9 0.5 -0.3
v 0.9 1.5 -0.3
v 0.9 1.7 -0.3
v 0.9 2.4 -0.3
v 1 0 -0.3
v 1 0.3 -0.3
v 1 0.4 -0.3
v 1 2.5 -0.3
v 1.1 0 -0.3
v 1.1 2.5 -0.3
v -1 0.5 -0.4
v -1 1.5 -0.4
v -1 1.7 -0.4
v -1 2.4 -0.4
v -0.9 0.6 -0.4
v -0.9 1.4 -0.4
v -0.9 1.8 -0.4
v -0.9 2.3 -0.4
v 0.8 0.6 -0.4
v 0.8 1.4 -0.4
v 0.8 1.8 -0.4
v 0.8 2.3 -0.4
v 0.9 0.5 -0.4
v 0.9 1.5 -0.4
v 0.9 1.7 -0.4
v 0.9 2.4 -0.4
v -1.2 0 -1.8
v -1.2 0.3 -1.8
v -1.1 0.3 -1.8
v -1 0 -1.8
v -1 0.3 -1.8
v 0.9 0 -1.8
v 0.9 0.3 -1.8
v 1 0.3 -1.8
v 1.1 0 -1.8
v 1.1 0.3 -1.8
v -1.2 0 -0.5
v -1.2 0.3 -0.5
v -1.1 0.3 -0.5
v -1 0 -0.5
v -1 0.3 -0.5
v 0.9 0 -0.5
v 0.9 0.3 -0.5
v 1 0.3 -0.5
v 1.1 0 -0.5
v 1.1 0.3 -0.5
v -1.4 2.5 -2
v -1.4 2.6 -2
v -1.2 0 -2
v -1.2 2.5 -2
v -1.1 0 -2
v -1.1 0.3 -2
v -1.1 0.4 -2
v -1.1 2.5 -2
v -1 0 -2
v -1 0.3 -2
v -1 2.1 -2
v -1 2.3 -2
v -0.9 0.5 -2
v -0.9 0.7 -2
v -0.9 1.1 -2
v -0.9 1.3 -2
v -0.9 2 -2
v -0.9 2.1 -2
v -0.9 2.3 -2
v -0.8 0.5 -2
v -0.8 0.7 -2
v -0.8 0.8 -2
v -0.8 1 -2
v -0.8 1.1 -2
v -0.8 1.3 -2
v -0.8 1.9 -2
v -0.8 2 -2
v -0.8 2.1 -2
v -0.7 0.7 -2
v -0.7 0.8 -2
v -0.7 1 -2
v -0.7 1.1 -2
v -0.7 1.4 -2
v -0.7 1.9 -2
v -0.7 2 -2
v -0.6 1.4 -2
v -0.6 1.9 -2
v -0.6 2 -2
v -0.5 0.7 -2
v -0.5 0.8 -2
v -0.5 1 -2
v -0.5 1.1 -2
v -0.5 1.9 -2
v -0.5 2 -2
v -0.5 2.1 -2
v -0.4 0.5 -2
v -0.4 0.7 -2
v -0.4 0.8 -2
v -0.4 1 -2
v -0.4 1.1 -2
v -0.4 1.3 -2
v -0.4 1.5 -2
v -0.4 1.6 -2
v -0.4 2 -2
v -0.4 2.1 -2
v -0.4 2.3 -2
v -0.3 0.5 -2
v -0.3 0.7 -2
v -0.3 1.1 -2
v -0.3 1.3 -2
v -0.3 1.5 -2
v -0.3 1.6 -2
v -0.3 1.9 -2
v -0.3 2.1 -2
v -0.3 2.3 -2
v -0.2 0.5 -2
v -0.2 0.6 -2
v -0.2 1.2 -2
v -0.2 1.3 -2
v -0.2 1.6 -2
v -0.2 1.7 -2
v -0.2 1.8 -2
v -0.2 1.9 -2
v -0.2 2.2 -2
v -0.1 1.9 -2
v -0.1 2.2 -2
v -0.1 2.3 -2
v 0 0.9 -2
v 0 1 -2
v 0 1.9 -2
v 0 2.2 -2
v 0 2.3 -2
v 0.1 1.6 -2
v 0.1 1.7 -2
v 0.1 1.8 -2
v 0.1 1.9 -2
v 0.1 2.2 -2
v 0.2 0.6 -2
v 0.2 0.9 -2
v 0.2 1 -2
v 0.2 1.2 -2
v 0.2 1.5 -2
v 0.2 1.6 -2
v 0.2 1.9 -2
v 0.3 0.5 -2
v 0.3 1.3 -2
v 0.3 1.5 -2
v 0.3 1.6 -2
v 0.3 1.9 -2
v 0.3 2.1 -2
v 0.3 2.2 -2
v 0.4 0.5 -2
v 0.4 0.9 -2
v 0.4 1.1 -2
v 0.4 1.2 -2
v 0.4 1.5 -2
v 0.4 1.6 -2
v 0.4 1.9 -2
v 0.4 2 -2
v 0.4 2.1 -2
v 0.4 2.2 -2
v 0.4 2.3 -2
v 0.5 0.6 -2
v 0.5 0.8 -2
v 0.5 1.1 -2
v 0.5 1.2 -2
v 0.5 1.3 -2
v 0.6 0.8 -2
v 0.6 0.9 -2
v 0.8 0.5 -2
v 0.8 0.6 -2
v 0.8 1.2 -2
v 0.8 1.3 -2
v 0.8 1.5 -2
v 0.8 1.6 -2
v 0.8 1.7 -2
v 0.8 1.9 -2
v 0.8 2 -2
v 0.8 2.2 -2
v 0.8 2.3 -2
v 0.9 0 -2
v 0.9 0.3 -2
v 0.9 0.6 -2
v 0.9 1.2 -2
v 0.9 1.6 -2
v 0.9 1.7 -2
v 0.9 2 -2
v 0.9 2.2 -2
v 1 0 -2
v 1 0.3 -2
v 1 0.4 -2
v 1 2.5 -2
v 1.1 0 -2
v 1.1 2.5 -2
v 1.3 2.5 -2
v 1.3 2.6 -2
v -1.2 0 -0.3
v -1.1 0 -0.3
v -1 0 -0.3
v 0.9 0 -0.3
v 1 0 -0.3
v 1.1 0 -0.3
v -1.2 0 -0.4
v -1.1 0 -0.4
v 1 0 -0.4
v 1.1 0 -0.4
v -1.2 0 -0.5
v -1 0 -0.5
v 0.9 0 -0.5
v 1.1 0 -0.5
v -1.2 0 -1.8
v -1 0 -1.8
v 0.9 0 -1.8
v 1.1 0 -1.8
v -1.2 0 -1.9
v -1.1 0 -1.9
v 1 0 -1.9
v 1.1 0 -1.9
v -1.2 0 -2
v -1.1 0 -2
v -1 0 -2
v 0.9 0 -2
v 1 0 -2
v 1.1 0 -2
v -1 0.3 -0.3
v 0.9 0.3 -0.3
v -1 0.3 -0.4
v 0.9 0.3 -0.4
v -1.2 0.3 -0.5
v -1.1 0.3 -0.5
v -1 0.3 -0.5
v 0.9 0.3 -0.5
v 1 0.3 -0.5
v 1.1 0.3 -0.5
v -1.2 0.3 -1.8
v -1.1 0.3 -1.8
v -1 0.3 -1.8
v 0.9 0.3 -1.8
v 1 0.3 -1.8
v 1.1 0.3 -1.8
v -1 0.3 -1.9
v 0.9 0.3 -1.9
v -1 0.3 -2
v 0.9 0.3 -2
v -0.9 0.6 -0.3
v 0.8 0.6 -0.3
v -0.9 0.6 -0.4
v 0.8 0.6 -0.4
v -0.1 0.9 -0.2
v 0 0.9 -0.2
v -0.1 0.9 -0.3
v 0 0.9 -0.3
v -1 1.5 -0.3
v 0.9 1.5 -0.3
v -1 1.5 -0.4
v 0.9 1.5 -0.4
v -0.9 1.8 -0.3
v 0.8 1.8 -0.3
v -0.9 1.8 -0.4
v 0.8 1.8 -0.4
v -0.1 2 -0.2
v 0 2 -0.2
v -0.1 2 -0.3
v 0 2 -0.3
v -1 2.4 -0.3
v 0.9 2.4 -0.3
v -1 2.4 -0.4
v 0.9 2.4 -0.4
v -1.4 2.5 -0.1
v 1.3 2.5 -0.1
v -1.3 2.5 -0.2
v 1.2 2.5 -0.2
v -1.2 2.5 -0.3
v -1.1 2.5 -0.3
v 1 2.5 -0.3
v 1.1 2.5 -0.3
v -1.2 2.5 -0.4
v 1.1 2.5 -0.4
v -1.3 2.5 -1.9
v -1.2 2.5 -1.9
v 1.1 2.5 -1.9
v 1.2 2.5 -1.9
v -1.4 2.5 -2
v -1.2 2.5 -2
v 1.1 2.5 -2
v 1.3 2.5 -2
v -1 0.5 -0.3
v 0.9 0.5 -0.3
v -1 0.5 -0.4
v 0.9 0.5 -0.4
v -0.1 1 -0.2
v 0 1 -0.2
v -0.1 1 -0.3
v 0 1 -0.3
v -0.9 1.4 -0.3
v 0.8 1.4 -0.3
v -0.9 1.4 -0.4
v 0.8 1.4 -0.4
v -1 1.7 -0.3
v 0.9 1.7 -0.3
v -1 1.7 -0.4
v 0.9 1.7 -0.4
v -0.1 2.1 -0.2
v 0 2.1 -0.2
v -0.1 2.1 -0.3
v 0 2.1 -0.3
v -0.9 2.3 -0.3
v 0.8 2.3 -0.3
v -0.9 2.3 -0.4
v 0.8 2.3 -0.4
v -1.4 2.6 -0.1
v 1.3 2.6 -0.1
v -1.3 2.6 -0.2
v 1.2 2.6 -0.2
v -1.3 2.6 -1.9
v 1.2 2.6 -1.9
v -1.4 2.6 -2
v 1.3 2.6 -2

# faces
f 3/2/1 2/2/1 1/2/1
f 4/2/1 2/2/1 3/2/1
f 11/2/1 6/2/1 5/2/1
f 11/1/1 7/1/1 6/1/1
f 12/1/1 7/1/1 11/1/1
f 13/1/1 9/1/1 8/1/1
f 14/2/1 10/2/1 9/2/1
f 14/1/1 9/1/1 13/1/1
f 15/2/1 13/2/1 12/2/1
f 15/2/1 12/2/1 11/2/1
f 15/2/1 14/2/1 13/2/1
f 15/2/1 11/2/1 5/2/1
f 16/2/1 10/2/1 14/2/1
f 16/2/1 14/2/1 15/2/1
f 17/2/1 15/2/1 5/2/1
f 18/1/1 16/1/1 15/1/1
f 18/2/1 15/2/1 17/2/1
f 19/2/1 10/2/1 16/2/1
f 19/1/1 16/1/1 18/1/1
f 20/2/1 10/2/1 19/2/1
f 23/1/1 22/1/1 21/1/1
f 24/1/1 22/1/1 23/1/1
f 27/1/1 26/1/1 25/1/1
f 28/1/1 26/1/1 27/1/1
f 31/2/1 30/2/1 29/2/1
f 32/2/1 30/2/1 31/2/1
f 35/2/1 34/2/1 33/2/1
f 36/2/1 34/2/1 35/2/1
f 41/1/1 38/1/1 37/1/1
f 42/1/1 38/1/1 41/1/1
f 43/1/1 38/1/1 42/1/1
f 44/1/1 40/1/1 39/1/1
f 45/1/1 40/1/1 44/1/1
f 46/1/1 40/1/1 45/1/1
f 49/1/1 48/1/1 47/1/1
f 50/1/1 48/1/1 49/1/1
f 53/1/1 52/1/1 51/1/1
f 54/1/1 52/1/1 53/1/1
f 55/1/2 56/1/2 59/1/2
f 59/1/2 56/1/2 60/1/2
f 60/1/2 56/1/2 61/1/2
f 57/1/2 58/1/2 62/1/2
f 62/1/2 58/1/2 63/1/2
f 63/1/2 58/1/2 64/1/2
f 65/1/2 66/1/2 67/1/2
f 67/1/2 66/1/2 68/1/2
f 69/1/2 70/1/2 71/1/2
f 71/1/2 70/1/2 72/1/2
f 73/2/2 74/2/2 75/2/2
f 75/2/2 74/2/2 76/2/2
f 77/2/2 78/2/2 79/2/2
f 79/2/2 78/2/2 80/2/2
f 81/1/2 82/1/2 83/1/2
f 83/1/2 82/1/2 84/1/2
f 85/1/2 86/1/2 87/1/2
f 87/1/2 86/1/2 88/1/2
f 89/2/2 90/2/2 95/2/2
f 90/1/2 91/1/2 95/1/2
f 95/1/2 91/1/2 96/1/2
f 92/1/2 93/1/2 97/1/2
f 93/2/2 94/2/2 98/2/2
f 97/1/2 93/1/2 98/1/2
f 96/2/2 97/2/2 99/2/2
f 95/2/2 96/2/2 99/2/2
f 97/2/2 98/2/2 99/2/2
f 89/2/2 95/2/2 99/2/2
f 98/2/2 94/2/2 100/2/2
f 99/2/2 98/2/2 100/2/2
f 89/2/2 99/2/2 101/2/2
f 99/1/2 100/1/2 102/1/2
f 101/2/2 99/2/2 102/2/2
f 100/2/2 94/2/2 103/2/2
f 102/1/2 100/1/2 103/1/2
f 103/2/2 94/2/2 104/2/2
f 105/2/2 106/2/2 107/2/2
f 107/2/2 106/2/2 108/2/2
f 111/2/3 110/2/3 109/2/3
f 112/2/3 110/2/3 111/2/3
f 117/2/3 114/2/3 113/2/3
f 118/2/3 114/2/3 117/2/3
f 119/2/3 116/2/3 115/2/3
f 120/2/3 116/2/3 119/2/3
f 123/2/3 122/2/3 121/2/3
f 124/2/3 122/2/3 123/2/3
f 125/2/3 122/2/3 124/2/3
f 126/2/3 122/2/3 125/2/3
f 127/1/3 124/1/3 123/1/3
f 128/2/3 125/2/3 124/2/3
f 128/1/3 124/1/3 127/1/3
f 129/1/3 126/1/3 125/1/3
f 130/1/3 126/1/3 129/1/3
f 131/1/3 126/1/3 130/1/3
f 132/1/3 126/1/3 131/1/3
f 137/1/3 134/1/3 133/1/3
f 138/1/3 134/1/3 137/1/3
f 139/1/3 136/1/3 135/1/3
f 140/1/3 136/1/3 139/1/3
f 141/1/3 137/1/3 133/1/3
f 142/1/3 134/1/3 138/1/3
f 143/1/3 139/1/3 135/1/3
f 144/1/3 136/1/3 140/1/3
f 145/1/3 141/1/3 133/1/3
f 145/1/3 142/1/3 141/1/3
f 146/1/3 134/1/3 142/1/3
f 146/1/3 142/1/3 145/1/3
f 147/1/3 144/1/3 143/1/3
f 147/1/3 143/1/3 135/1/3
f 148/1/3 136/1/3 144/1/3
f 148/1/3 144/1/3 147/1/3
f 150/2/3 125/2/3 128/2/3
f 151/1/3 129/1/3 125/1/3
f 152/1/3 131/1/3 130/1/3
f 153/1/3 131/1/3 152/1/3
f 154/1/3 126/1/3 132/1/3
f 155/1/3 150/1/3 149/1/3
f 156/2/3 125/2/3 150/2/3
f 156/1/3 150/1/3 155/1/3
f 157/1/3 153/1/3 152/1/3
f 157/2/3 125/2/3 156/2/3
f 157/1/3 154/1/3 153/1/3
f 157/1/3 151/1/3 125/1/3
f 157/1/3 152/1/3 151/1/3
f 158/1/3 126/1/3 154/1/3
f 158/1/3 154/1/3 157/1/3
f 159/2/3 156/2/3 155/2/3
f 159/2/3 157/2/3 156/2/3
f 159/2/3 158/2/3 157/2/3
f 160/2/3 158/2/3 159/2/3
f 165/2/3 162/2/3 161/2/3
f 166/2/3 162/2/3 165/2/3
f 167/2/3 164/2/3 163/2/3
f 168/2/3 164/2/3 167/2/3
f 169/2/3 165/2/3 161/2/3
f 170/2/3 162/2/3 166/2/3
f 171/2/3 167/2/3 163/2/3
f 172/2/3 164/2/3 168/2/3
f 173/2/3 169/2/3 161/2/3
f 173/2/3 170/2/3 169/2/3
f 174/2/3 162/2/3 170/2/3
f 174/2/3 170/2/3 173/2/3
f 175/2/3 172/2/3 171/2/3
f 175/2/3 171/2/3 163/2/3
f 176/2/3 164/2/3 172/2/3
f 176/2/3 172/2/3 175/2/3
f 179/1/3 178/1/3 177/1/3
f 180/1/3 179/1/3 177/1/3
f 181/1/3 179/1/3 180/1/3
f 184/1/3 183/1/3 182/1/3
f 185/1/3 184/1/3 182/1/3
f 186/1/3 184/1/3 185/1/3
f 187/1/4 188/1/4 189/1/4
f 187/1/4 189/1/4 190/1/4
f 190/1/4 189/1/4 191/1/4
f 192/1/4 193/1/4 194/1/4
f 192/1/4 194/1/4 195/1/4
f 195/1/4 194/1/4 196/1/4
f 197/2/4 198/2/4 200/2/4
f 199/2/4 200/2/4 201/2/4
f 201/2/4 200/2/4 202/2/4
f 202/2/4 200/2/4 203/2/4
f 200/2/4 198/2/4 204/2/4
f 203/2/4 200/2/4 204/2/4
f 201/1/4 202/1/4 205/1/4
f 202/2/4 203/2/4 206/2/4
f 205/1/4 202/1/4 206/1/4
f 203/1/4 204/1/4 207/1/4
f 207/1/4 204/1/4 208/1/4
f 203/1/4 207/1/4 209/1/4
f 209/1/4 207/1/4 210/1/4
f 210/1/4 207/1/4 211/1/4
f 211/1/4 207/1/4 212/1/4
f 212/1/4 207/1/4 213/1/4
f 207/2/4 208/2/4 214/2/4
f 213/1/4 207/1/4 214/1/4
f 208/1/4 204/1/4 215/1/4
f 214/2/4 208/2/4 215/2/4
f 203/1/4 209/1/4 216/1/4
f 209/2/4 210/2/4 216/2/4
f 210/1/4 211/1/4 217/1/4
f 216/2/4 210/2/4 217/2/4
f 217/1/4 211/1/4 218/1/4
f 218/1/4 211/1/4 219/1/4
f 211/2/4 212/2/4 220/2/4
f 219/1/4 211/1/4 220/1/4
f 212/1/4 213/1/4 221/1/4
f 220/2/4 212/2/4 221/2/4
f 221/1/4 213/1/4 222/1/4
f 213/2/4 214/2/4 223/2/4
f 222/1/4 213/1/4 223/1/4
f 214/1/4 215/1/4 224/1/4
f 223/2/4 214/2/4 224/2/4
f 216/1/4 217/1/4 225/1/4
f 217/2/4 218/2/4 225/2/4
f 218/1/4 219/1/4 226/1/4
f 225/2/4 218/2/4 226/2/4
f 219/2/4 220/2/4 227/2/4
f 226/1/4 219/1/4 227/1/4
f 221/1/4 222/1/4 228/1/4
f 227/2/4 220/2/4 228/2/4
f 220/1/4 221/1/4 228/1/4
f 228/1/4 222/1/4 229/1/4
f 222/2/4 223/2/4 230/2/4
f 229/1/4 222/1/4 230/1/4
f 223/1/4 224/1/4 231/1/4
f 230/2/4 223/2/4 231/2/4
f 228/1/4 229/1/4 232/1/4
f 229/2/4 230/2/4 232/2/4
f 227/1/4 228/1/4 232/1/4
f 230/1/4 231/1/4 233/1/4
f 232/2/4 230/2/4 233/2/4
f 231/1/4 224/1/4 234/1/4
f 233/1/4 231/1/4 234/1/4
f 225/1/4 226/1/4 235/1/4
f 216/1/4 225/1/4 235/1/4
f 226/2/4 227/2/4 236/2/4
f 235/1/4 226/1/4 236/1/4
f 232/1/4 233/1/4 237/1/4
f 236/2/4 227/2/4 237/2/4
f 227/1/4 232/1/4 237/1/4
f 237/1/4 233/1/4 238/1/4
f 233/2/4 234/2/4 239/2/4
f 238/1/4 233/1/4 239/1/4
f 234/1/4 224/1/4 240/1/4
f 239/2/4 234/2/4 240/2/4
f 224/1/4 215/1/4 241/1/4
f 240/1/4 224/1/4 241/1/4
f 216/1/4 235/1/4 242/1/4
f 203/1/4 216/1/4 242/1/4
f 235/2/4 236/2/4 243/2/4
f 242/1/4 235/1/4 243/1/4
f 236/1/4 237/1/4 244/1/4
f 243/2/4 236/2/4 244/2/4
f 237/2/4 238/2/4 245/2/4
f 244/1/4 237/1/4 245/1/4
f 238/1/4 239/1/4 246/1/4
f 245/2/4 238/2/4 246/2/4
f 239/1/4 240/1/4 246/1/4
f 246/1/4 240/1/4 247/1/4
f 247/1/4 240/1/4 248/1/4
f 248/1/4 240/1/4 249/1/4
f 240/2/4 241/2/4 250/2/4
f 249/1/4 240/1/4 250/1/4
f 241/1/4 215/1/4 251/1/4
f 250/2/4 241/2/4 251/2/4
f 215/1/4 204/1/4 252/1/4
f 251/1/4 215/1/4 252/1/4
f 203/1/4 242/1/4 253/1/4
f 242/2/4 243/2/4 253/2/4
f 244/1/4 245/1/4 254/1/4
f 253/2/4 243/2/4 254/2/4
f 243/1/4 244/1/4 254/1/4
f 245/1/4 246/1/4 254/1/4
f 246/2/4 247/2/4 255/2/4
f 254/1/4 246/1/4 255/1/4
f 247/1/4 248/1/4 256/1/4
f 255/2/4 247/2/4 256/2/4
f 248/2/4 249/2/4 257/2/4
f 256/1/4 248/1/4 257/1/4
f 249/1/4 250/1/4 258/1/4
f 257/2/4 249/2/4 258/2/4
f 250/1/4 251/1/4 258/1/4
f 258/1/4 251/1/4 259/1/4
f 251/2/4 252/2/4 260/2/4
f 259/1/4 251/1/4 260/1/4
f 252/1/4 204/1/4 261/1/4
f 260/2/4 252/2/4 261/2/4
f 256/1/4 257/1/4 262/1/4
f 203/1/4 253/1/4 262/1/4
f 253/1/4 254/1/4 262/1/4
f 257/1/4 258/1/4 262/1/4
f 255/1/4 256/1/4 262/1/4
f 254/1/4 255/1/4 262/1/4
f 262/1/4 258/1/4 263/1/4
f 263/1/4 258/1/4 264/1/4
f 264/1/4 258/1/4 265/1/4
f 258/2/4 259/2/4 266/2/4
f 265/1/4 258/1/4 266/1/4
f 266/2/4 259/2/4 267/2/4
f 267/2/4 259/2/4 268/2/4
f 260/1/4 261/1/4 269/1/4
f 268/2/4 259/2/4 269/2/4
f 259/1/4 260/1/4 269/1/4
f 269/1/4 261/1/4 270/1/4
f 268/1/4 269/1/4 271/1/4
f 269/2/4 270/2/4 271/2/4
f 270/1/4 261/1/4 272/1/4
f 271/2/4 270/2/4 272/2/4
f 261/1/4 204/1/4 273/1/4
f 272/1/4 261/1/4 273/1/4
f 263/1/4 264/1/4 274/1/4
f 274/1/4 264/1/4 275/1/4
f 271/1/4 272/1/4 276/1/4
f 268/1/4 271/1/4 276/1/4
f 272/2/4 273/2/4 277/2/4
f 276/1/4 272/1/4 277/1/4
f 273/1/4 204/1/4 278/1/4
f 277/2/4 273/2/4 278/2/4
f 266/1/4 267/1/4 279/1/4
f 265/1/4 266/1/4 279/1/4
f 267/2/4 268/2/4 280/2/4
f 279/1/4 267/1/4 280/1/4
f 268/1/4 276/1/4 281/1/4
f 280/2/4 268/2/4 281/2/4
f 276/2/4 277/2/4 282/2/4
f 281/1/4 276/1/4 282/1/4
f 277/1/4 278/1/4 283/1/4
f 282/2/4 277/2/4 283/2/4
f 262/2/4 263/2/4 284/2/4
f 263/1/4 274/1/4 284/1/4
f 274/2/4 275/2/4 285/2/4
f 284/1/4 274/1/4 285/1/4
f 275/1/4 264/1/4 286/1/4
f 285/2/4 275/2/4 286/2/4
f 264/2/4 265/2/4 287/2/4
f 286/1/4 264/1/4 287/1/4
f 265/1/4 279/1/4 288/1/4
f 280/2/4 281/2/4 289/2/4
f 288/1/4 279/1/4 289/1/4
f 281/2/4 282/2/4 289/2/4
f 279/2/4 280/2/4 289/2/4
f 282/1/4 283/1/4 290/1/4
f 289/2/4 282/2/4 290/2/4
f 284/2/4 285/2/4 291/2/4
f 285/2/4 286/2/4 291/2/4
f 203/1/4 262/1/4 291/1/4
f 286/2/4 287/2/4 291/2/4
f 262/2/4 284/2/4 291/2/4
f 287/2/4 265/2/4 292/2/4
f 291/2/4 287/2/4 292/2/4
f 265/1/4 288/1/4 292/1/4
f 288/2/4 289/2/4 293/2/4
f 292/1/4 288/1/4 293/1/4
f 289/1/4 290/1/4 294/1/4
f 293/2/4 289/2/4 294/2/4
f 290/1/4 283/1/4 295/1/4
f 294/1/4 290/1/4 295/1/4
f 295/1/4 283/1/4 296/1/4
f 283/1/4 278/1/4 297/1/4
f 296/1/4 283/1/4 297/1/4
f 293/1/4 294/1/4 298/1/4
f 203/1/4 291/1/4 298/1/4
f 292/1/4 293/1/4 298/1/4
f 291/1/4 292/1/4 298/1/4
f 298/1/4 294/1/4 299/1/4
f 299/1/4 294/1/4 300/1/4
f 300/1/4 294/1/4 301/1/4
f 301/1/4 294/1/4 302/1/4
f 294/2/4 295/2/4 303/2/4
f 302/1/4 294/1/4 303/1/4
f 295/1/4 296/1/4 304/1/4
f 303/2/4 295/2/4 304/2/4
f 304/1/4 296/1/4 305/1/4
f 296/2/4 297/2/4 306/2/4
f 305/1/4 296/1/4 306/1/4
f 297/1/4 278/1/4 307/1/4
f 306/2/4 297/2/4 307/2/4
f 278/1/4 204/1/4 308/1/4
f 307/1/4 278/1/4 308/1/4
f 298/2/4 299/2/4 309/2/4
f 309/2/4 299/2/4 310/2/4
f 299/1/4 300/1/4 311/1/4
f 300/2/4 301/2/4 311/2/4
f 301/1/4 302/1/4 312/1/4
f 311/2/4 301/2/4 312/2/4
f 312/1/4 302/1/4 313/1/4
f 310/2/4 299/2/4 314/2/4
f 309/1/4 310/1/4 314/1/4
f 299/1/4 311/1/4 315/1/4
f 314/2/4 299/2/4 315/2/4
f 311/1/4 312/1/4 315/1/4
f 203/1/4 298/1/4 316/1/4
f 298/2/4 309/2/4 316/2/4
f 309/1/4 314/1/4 317/1/4
f 316/2/4 309/2/4 317/2/4
f 314/1/4 315/1/4 317/1/4
f 315/1/4 312/1/4 318/1/4
f 317/1/4 315/1/4 318/1/4
f 312/2/4 313/2/4 318/2/4
f 313/1/4 302/1/4 319/1/4
f 318/2/4 313/2/4 319/2/4
f 302/2/4 303/2/4 320/2/4
f 319/1/4 302/1/4 320/1/4
f 303/1/4 304/1/4 321/1/4
f 320/2/4 303/2/4 321/2/4
f 321/1/4 304/1/4 322/1/4
f 304/2/4 305/2/4 323/2/4
f 322/1/4 304/1/4 323/1/4
f 305/1/4 306/1/4 324/1/4
f 323/2/4 305/2/4 324/2/4
f 306/1/4 307/1/4 324/1/4
f 307/2/4 308/2/4 325/2/4
f 324/1/4 307/1/4 325/1/4
f 308/1/4 204/1/4 326/1/4
f 325/2/4 308/2/4 326/2/4
f 206/2/4 203/2/4 328/2/4
f 316/1/4 317/1/4 329/1/4
f 317/2/4 318/2/4 329/2/4
f 320/1/4 321/1/4 330/1/4
f 329/2/4 318/2/4 330/2/4
f 318/1/4 319/1/4 330/1/4
f 319/1/4 320/1/4 330/1/4
f 321/2/4 322/2/4 331/2/4
f 330/1/4 321/1/4 331/1/4
f 322/1/4 323/1/4 332/1/4
f 331/2/4 322/2/4 332/2/4
f 323/1/4 324/1/4 332/1/4
f 324/2/4 325/2/4 333/2/4
f 332/1/4 324/1/4 333/1/4
f 325/1/4 326/1/4 334/1/4
f 333/2/4 325/2/4 334/2/4
f 327/1/4 328/1/4 335/1/4
f 328/2/4 203/2/4 336/2/4
f 335/1/4 328/1/4 336/1/4
f 330/1/4 331/1/4 337/1/4
f 336/2/4 203/2/4 337/2/4
f 329/1/4 330/1/4 337/1/4
f 333/1/4 334/1/4 337/1/4
f 332/1/4 333/1/4 337/1/4
f 203/1/4 316/1/4 337/1/4
f 331/1/4 332/1/4 337/1/4
f 316/1/4 329/1/4 337/1/4
f 204/2/4 198/2/4 338/2/4
f 337/1/4 334/1/4 338/1/4
f 326/1/4 204/1/4 338/1/4
f 334/1/4 326/1/4 338/1/4
f 336/2/4 337/2/4 339/2/4
f 335/2/4 336/2/4 339/2/4
f 337/2/4 338/2/4 339/2/4
f 338/2/4 198/2/4 340/2/4
f 339/2/4 338/2/4 340/2/4
f 340/2/4 198/2/4 341/2/4
f 341/2/4 198/2/4 342/2/4
f 349/2/5 344/2/5 343/2/5
f 350/1/5 345/1/5 344/1/5
f 350/2/5 344/2/5 349/2/5
f 351/2/5 348/2/5 347/2/5
f 351/1/5 347/1/5 346/1/5
f 352/2/5 348/2/5 351/2/5
f 353/1/5 350/1/5 349/1/5
f 354/1/5 345/1/5 350/1/5
f 354/1/5 350/1/5 353/1/5
f 355/1/5 351/1/5 346/1/5
f 355/1/5 352/1/5 351/1/5
f 356/1/5 352/1/5 355/1/5
f 361/1/5 358/1/5 357/1/5
f 362/1/5 358/1/5 361/1/5
f 363/1/5 360/1/5 359/1/5
f 364/1/5 360/1/5 363/1/5
f 365/2/5 362/2/5 361/2/5
f 366/1/5 358/1/5 362/1/5
f 366/2/5 362/2/5 365/2/5
f 367/1/5 358/1/5 366/1/5
f 368/1/5 363/1/5 359/1/5
f 369/2/5 364/2/5 363/2/5
f 369/1/5 363/1/5 368/1/5
f 370/2/5 364/2/5 369/2/5
f 373/2/5 372/2/5 371/2/5
f 374/2/5 372/2/5 373/2/5
f 377/1/5 374/1/5 373/1/5
f 378/1/5 374/1/5 377/1/5
f 381/2/5 376/2/5 375/2/5
f 382/1/5 378/1/5 377/1/5
f 382/2/5 376/2/5 381/2/5
f 382/1/5 377/1/5 376/1/5
f 382/1/5 379/1/5 378/1/5
f 383/1/5 379/1/5 382/1/5
f 384/1/5 379/1/5 383/1/5
f 385/2/5 380/2/5 379/2/5
f 385/1/5 379/1/5 384/1/5
f 386/2/5 380/2/5 385/2/5
f 387/1/5 384/1/5 383/1/5
f 388/1/5 384/1/5 387/1/5
f 389/2/5 388/2/5 387/2/5
f 390/2/5 388/2/5 389/2/5
f 393/1/5 392/1/5 391/1/5
f 394/1/5 392/1/5 393/1/5
f 397/2/5 396/2/5 395/2/5
f 398/2/5 396/2/5 397/2/5
f 401/1/5 400/1/5 399/1/5
f 402/1/5 400/1/5 401/1/5
f 405/1/5 404/1/5 403/1/5
f 406/1/5 404/1/5 405/1/5
f 409/2/5 408/2/5 407/2/5
f 410/2/5 408/2/5 409/2/5
f 413/1/5 412/1/5 411/1/5
f 414/1/5 412/1/5 413/1/5
f 417/2/5 416/2/5 415/2/5
f 418/2/5 416/2/5 417/2/5
f 419/1/5 418/1/5 417/1/5
f 420/1/5 418/1/5 419/1/5
f 421/1/5 418/1/5 420/1/5
f 422/1/5 418/1/5 421/1/5
f 423/1/5 419/1/5 417/1/5
f 424/1/5 418/1/5 422/1/5
f 425/2/5 417/2/5 415/2/5
f 425/1/5 423/1/5 417/1/5
f 426/1/5 423/1/5 425/1/5
f 427/1/5 418/1/5 424/1/5
f 428/2/5 416/2/5 418/2/5
f 428/1/5 418/1/5 427/1/5
f 429/2/5 426/2/5 425/2/5
f 429/2/5 425/2/5 415/2/5
f 430/2/5 426/2/5 429/2/5
f 431/2/5 428/2/5 427/2/5
f 432/2/5 416/2/5 428/2/5
f 432/2/5 428/2/5 431/2/5
f 433/1/6 434/1/6 435/1/6
f 435/1/6 434/1/6 436/1/6
f 437/2/6 438/2/6 439/2/6
f 439/2/6 438/2/6 440/2/6
f 441/1/6 442/1/6 443/1/6
f 443/1/6 442/1/6 444/1/6
f 445/1/6 446/1/6 447/1/6
f 447/1/6 446/1/6 448/1/6
f 449/2/6 450/2/6 451/2/6
f 451/2/6 450/2/6 452/2/6
f 453/1/6 454/1/6 455/1/6
f 455/1/6 454/1/6 456/1/6
f 457/2/6 458/2/6 459/2/6
f 459/2/6 458/2/6 460/2/6
f 457/2/6 459/2/6 461/2/6
f 459/1/6 460/1/6 461/1/6
f 460/2/6 458/2/6 462/2/6
f 461/1/6 460/1/6 462/1/6
f 457/2/6 461/2/6 463/2/6
f 461/2/6 462/2/6 463/2/6
f 462/2/6 458/2/6 464/2/6
f 463/2/6 462/2/6 464/2/6
