# MagicaVoxel @ Ephtracy

# group
o 

# material
mtllib drawer.mtl
usemtl palette

# normals
vn -1 0 0
vn 1 0 0
vn 0 0 1
vn 0 0 -1
vn 0 -1 0
vn 0 1 0

# texcoords
vt 0.306641 0.5
vt 0.642578 0.5

# verts
v -1.6 0 3.2
v -1.6 0 -2.5
v -1.6 1.6 3.2
v -1.6 1.6 -2.5
v 1.5 0.1 3.1
v 1.5 0.1 -2.4
v 1.5 1.6 3.1
v 1.5 1.6 -2.4
v -1.5 0.1 3.1
v -1.5 0.1 -2.4
v -1.5 1.6 3.1
v -1.5 1.6 -2.4
v 1.6 0 3.2
v 1.6 0 -2.5
v 1.6 1.6 3.2
v 1.6 1.6 -2.5
v -1.6 0 3.2
v -1.6 1.6 3.2
v 1.6 0 3.2
v 1.6 1.6 3.2
v -1.5 0.1 -2.4
v -1.5 1.6 -2.4
v -0.3 0.4 -2.4
v -0.3 0.7 -2.4
v -0.1 0.2 -2.4
v -0.1 0.4 -2.4
v 0.2 0.2 -2.4
v 0.2 0.7 -2.4
v 1.5 0.1 -2.4
v 1.5 1.6 -2.4
v -1.5 0.1 3.1
v -1.5 1.6 3.1
v 1.5 0.1 3.1
v 1.5 1.6 3.1
v -1.6 0 -2.5
v -1.6 1.6 -2.5
v -0.3 0.4 -2.5
v -0.3 0.7 -2.5
v -0.1 0.2 -2.5
v -0.1 0.4 -2.5
v 0.2 0.2 -2.5
v 0.2 0.7 -2.5
v 1.6 0 -2.5
v 1.6 1.6 -2.5
v -1.6 0 3.2
v 1.6 0 3.2
v -0.2 0 -1.8
v 0.1 0 -1.8
v -0.2 0 -1.9
v 0.1 0 -1.9
v -1.6 0 -2.5
v 1.6 0 -2.5
v -1.5 0.1 3.1
v 1.5 0.1 3.1
v -0.2 0.1 -1.8
v 0.1 0.1 -1.8
v -0.2 0.1 -1.9
v 0.1 0.1 -1.9
v -1.5 0.1 -2.4
v 1.5 0.1 -2.4
v -1.6 1.6 3.2
v 1.6 1.6 3.2
v -1.5 1.6 3.1
v 1.5 1.6 3.1
v -1.5 1.6 -2.4
v 1.5 1.6 -2.4
v -1.6 1.6 -2.5
v 1.6 1.6 -2.5

# faces
f 3/2/1 2/2/1 1/2/1
f 4/2/1 2/2/1 3/2/1
f 7/2/1 6/2/1 5/2/1
f 8/2/1 6/2/1 7/2/1
f 9/2/2 10/2/2 11/2/2
f 11/2/2 10/2/2 12/2/2
f 13/2/2 14/2/2 15/2/2
f 15/2/2 14/2/2 16/2/2
f 19/2/3 18/2/3 17/2/3
f 20/2/3 18/2/3 19/2/3
f 23/2/3 22/2/3 21/2/3
f 24/2/3 22/2/3 23/2/3
f 25/2/3 23/2/3 21/2/3
f 26/1/3 24/1/3 23/1/3
f 26/2/3 23/2/3 25/2/3
f 27/2/3 25/2/3 21/2/3
f 27/1/3 26/1/3 25/1/3
f 28/2/3 22/2/3 24/2/3
f 28/1/3 26/1/3 27/1/3
f 28/1/3 24/1/3 26/1/3
f 29/2/3 27/2/3 21/2/3
f 29/2/3 28/2/3 27/2/3
f 30/2/3 22/2/3 28/2/3
f 30/2/3 28/2/3 29/2/3
f 31/2/4 32/2/4 33/2/4
f 33/2/4 32/2/4 34/2/4
f 35/2/4 36/2/4 37/2/4
f 37/2/4 36/2/4 38/2/4
f 35/2/4 37/2/4 39/2/4
f 37/1/4 38/1/4 40/1/4
f 39/2/4 37/2/4 40/2/4
f 35/2/4 39/2/4 41/2/4
f 39/1/4 40/1/4 41/1/4
f 38/2/4 36/2/4 42/2/4
f 41/1/4 40/1/4 42/1/4
f 40/1/4 38/1/4 42/1/4
f 35/2/4 41/2/4 43/2/4
f 41/2/4 42/2/4 43/2/4
f 42/2/4 36/2/4 44/2/4
f 43/2/4 42/2/4 44/2/4
f 47/2/5 46/2/5 45/2/5
f 48/2/5 46/2/5 47/2/5
f 49/2/5 47/2/5 45/2/5
f 49/1/5 48/1/5 47/1/5
f 50/2/5 46/2/5 48/2/5
f 50/1/5 48/1/5 49/1/5
f 51/2/5 49/2/5 45/2/5
f 51/2/5 50/2/5 49/2/5
f 52/2/5 46/2/5 50/2/5
f 52/2/5 50/2/5 51/2/5
f 53/2/6 54/2/6 55/2/6
f 55/2/6 54/2/6 56/2/6
f 53/2/6 55/2/6 57/2/6
f 55/1/6 56/1/6 57/1/6
f 56/2/6 54/2/6 58/2/6
f 57/1/6 56/1/6 58/1/6
f 53/2/6 57/2/6 59/2/6
f 57/2/6 58/2/6 59/2/6
f 58/2/6 54/2/6 60/2/6
f 59/2/6 58/2/6 60/2/6
f 61/2/6 62/2/6 63/2/6
f 63/2/6 62/2/6 64/2/6
f 61/2/6 63/2/6 65/2/6
f 64/2/6 62/2/6 66/2/6
f 61/2/6 65/2/6 67/2/6
f 65/2/6 66/2/6 67/2/6
f 66/2/6 62/2/6 68/2/6
f 67/2/6 66/2/6 68/2/6
