# MagicaVoxel @ Ephtracy

# group
o 

# material
mtllib KnifeHolder_MissingKnife.vox.mtl
usemtl palette

# normals
vn -1 0 0
vn 1 0 0
vn 0 0 1
vn 0 0 -1
vn 0 -1 0
vn 0 1 0

# texcoords
vt 0.369141 0.5
vt 0.537109 0.5
vt 0.970703 0.5
vt 0.978516 0.5
vt 0.986328 0.5
vt 0.994141 0.5

# verts
v -0.2 0 -0.1
v -0.2 0 -0.4
v -0.2 0 -0.5
v -0.2 0 -0.6
v -0.2 0 -0.7
v -0.2 0 -0.8
v -0.2 0.2 -0.1
v -0.2 0.2 -0.3
v -0.2 0.2 -0.4
v -0.2 0.2 -0.5
v -0.2 0.2 -0.6
v -0.2 0.2 -0.7
v -0.2 0.2 -0.8
v -0.2 0.3 -0.1
v -0.2 0.3 -0.3
v -0.2 0.3 -0.4
v -0.2 0.4 -0.5
v -0.2 0.4 -0.6
v -0.2 0.4 -0.7
v -0.2 0.4 -0.8
v -0.2 0.5 -0.1
v -0.2 0.5 -0.2
v -0.2 0.9 -0.5
v -0.2 0.9 -0.6
v -0.2 0.9 -0.8
v -0.2 1 -0.1
v -0.2 1 -0.2
v -0.2 1 -0.6
v -0.2 1 -0.7
v -0.2 1.1 -0.1
v -0.2 1.1 -0.2
v -0.2 1.2 -0.1
v -0.2 1.2 -0.2
v -0.2 1.2 -0.3
v -0.2 1.2 -0.4
v -0.2 1.2 -0.7
v -0.2 1.2 -0.8
v -0.2 1.3 -0.1
v -0.2 1.3 -0.2
v -0.2 1.3 -0.3
v -0.2 1.3 -0.8
v 0.1 0.9 -0.3
v 0.1 0.9 -0.6
v 0.1 1.2 -0.6
v 0.1 1.3 -0.3
v 0.1 1.3 -0.6
v 0.3 1.3 -0.3
v 0.3 1.3 -0.4
v 0.3 1.3 -0.5
v 0.3 1.3 -0.6
v 0.3 1.4 -0.3
v 0.3 1.4 -0.4
v 0.3 1.4 -0.5
v 0.3 1.5 -0.6
v 0.3 1.5 -0.7
v 0.3 1.6 -0.3
v 0.3 1.6 -0.4
v 0.3 1.6 -0.6
v 0.3 1.7 -0.3
v 0.3 1.7 -0.4
v 0.3 1.7 -0.6
v 0.3 1.7 -0.7
v 0.3 1.8 -0.4
v 0.3 1.8 -0.5
v 0.3 1.9 -0.4
v 0.3 1.9 -0.5
v 0.3 2 -0.4
v 0.3 2 -0.5
v 0.3 2.1 -0.4
v 0.3 2.1 -0.5
v 0.3 2.2 -0.4
v 0.3 2.2 -0.6
v 0.4 1 -0.3
v 0.4 1 -0.6
v 0.4 1.1 -0.3
v 0.4 1.1 -0.6
v 5.96046e-08 0.9 -0.3
v 5.96046e-08 0.9 -0.6
v 5.96046e-08 1.2 -0.3
v 5.96046e-08 1.2 -0.4
v 5.96046e-08 1.2 -0.6
v 5.96046e-08 1.3 -0.3
v 5.96046e-08 1.3 -0.4
v 5.96046e-08 1.3 -0.6
v 0.3 1 -0.3
v 0.3 1 -0.6
v 0.3 1.1 -0.3
v 0.3 1.1 -0.6
v 0.4 1.3 -0.3
v 0.4 1.3 -0.4
v 0.4 1.3 -0.5
v 0.4 1.3 -0.6
v 0.4 1.4 -0.3
v 0.4 1.4 -0.4
v 0.4 1.4 -0.5
v 0.4 1.5 -0.6
v 0.4 1.5 -0.7
v 0.4 1.6 -0.3
v 0.4 1.6 -0.4
v 0.4 1.6 -0.6
v 0.4 1.7 -0.3
v 0.4 1.7 -0.4
v 0.4 1.7 -0.6
v 0.4 1.7 -0.7
v 0.4 1.8 -0.4
v 0.4 1.8 -0.5
v 0.4 1.9 -0.4
v 0.4 1.9 -0.5
v 0.4 2 -0.4
v 0.4 2 -0.5
v 0.4 2.1 -0.4
v 0.4 2.1 -0.5
v 0.4 2.2 -0.4
v 0.4 2.2 -0.6
v 0.6 0 -0.1
v 0.6 0 -0.2
v 0.6 0 -0.4
v 0.6 0 -0.5
v 0.6 0 -0.6
v 0.6 0 -0.7
v 0.6 0 -0.8
v 0.6 0.2 -0.1
v 0.6 0.2 -0.2
v 0.6 0.2 -0.3
v 0.6 0.2 -0.6
v 0.6 0.2 -0.7
v 0.6 0.2 -0.8
v 0.6 0.4 -0.2
v 0.6 0.4 -0.3
v 0.6 0.4 -0.4
v 0.6 0.5 -0.3
v 0.6 0.5 -0.5
v 0.6 0.6 -0.3
v 0.6 0.6 -0.4
v 0.6 0.6 -0.6
v 0.6 0.6 -0.7
v 0.6 0.6 -0.8
v 0.6 0.7 -0.1
v 0.6 0.7 -0.2
v 0.6 0.7 -0.4
v 0.6 0.7 -0.6
v 0.6 0.8 -0.4
v 0.6 0.8 -0.6
v 0.6 0.9 -0.3
v 0.6 0.9 -0.4
v 0.6 0.9 -0.5
v 0.6 1 -0.7
v 0.6 1 -0.8
v 0.6 1.1 -0.2
v 0.6 1.1 -0.4
v 0.6 1.1 -0.7
v 0.6 1.1 -0.8
v 0.6 1.2 -0.2
v 0.6 1.2 -0.5
v 0.6 1.2 -0.6
v 0.6 1.2 -0.7
v 0.6 1.3 -0.1
v 0.6 1.3 -0.2
v 0.6 1.3 -0.8
v -0.2 0 -0.1
v -0.2 0.2 -0.1
v -0.2 0.3 -0.1
v -0.2 0.5 -0.1
v -0.2 1 -0.1
v -0.2 1.1 -0.1
v -0.2 1.2 -0.1
v -0.2 1.3 -0.1
v -0.0999999 0.2 -0.1
v -0.0999999 0.3 -0.1
v -0.0999999 0.4 -0.1
v -0.0999999 0.5 -0.1
v -0.0999999 1 -0.1
v -0.0999999 1.1 -0.1
v -0.0999999 1.2 -0.1
v 5.96046e-08 0 -0.1
v 5.96046e-08 0.3 -0.1
v 5.96046e-08 0.8 -0.1
v 5.96046e-08 1.3 -0.1
v 0.1 0 -0.1
v 0.1 0.4 -0.1
v 0.2 0 -0.1
v 0.2 0.2 -0.1
v 0.2 0.4 -0.1
v 0.2 0.8 -0.1
v 0.2 1.3 -0.1
v 0.3 0 -0.1
v 0.3 0.2 -0.1
v 0.3 0.4 -0.1
v 0.3 0.6 -0.1
v 0.3 0.7 -0.1
v 0.3 0.8 -0.1
v 0.3 0.9 -0.1
v 0.3 1.3 -0.1
v 0.4 0.2 -0.1
v 0.4 0.3 -0.1
v 0.4 0.4 -0.1
v 0.4 0.6 -0.1
v 0.4 0.7 -0.1
v 0.4 0.9 -0.1
v 0.4 1.3 -0.1
v 0.5 0 -0.1
v 0.5 0.2 -0.1
v 0.5 0.3 -0.1
v 0.5 0.6 -0.1
v 0.5 0.7 -0.1
v 0.5 1.3 -0.1
v 0.6 0 -0.1
v 0.6 0.2 -0.1
v 0.6 0.7 -0.1
v 0.6 1.3 -0.1
v 0.3 1.3 -0.3
v 0.3 1.4 -0.3
v 0.3 1.6 -0.3
v 0.3 1.7 -0.3
v 0.4 1.3 -0.3
v 0.4 1.4 -0.3
v 0.4 1.6 -0.3
v 0.4 1.7 -0.3
v 0.3 1.4 -0.4
v 0.3 1.6 -0.4
v 0.3 1.7 -0.4
v 0.3 1.8 -0.4
v 0.3 1.9 -0.4
v 0.3 2 -0.4
v 0.3 2.1 -0.4
v 0.3 2.2 -0.4
v 0.4 1.4 -0.4
v 0.4 1.6 -0.4
v 0.4 1.7 -0.4
v 0.4 1.8 -0.4
v 0.4 1.9 -0.4
v 0.4 2 -0.4
v 0.4 2.1 -0.4
v 0.4 2.2 -0.4
v 5.96046e-08 0.9 -0.6
v 5.96046e-08 1.2 -0.6
v 5.96046e-08 1.3 -0.6
v 0.1 0.9 -0.6
v 0.1 1.2 -0.6
v 0.1 1.3 -0.6
v 0.3 1 -0.6
v 0.3 1.1 -0.6
v 0.4 1 -0.6
v 0.4 1.1 -0.6
v 5.96046e-08 0.9 -0.3
v 5.96046e-08 1.2 -0.3
v 5.96046e-08 1.3 -0.3
v 0.1 0.9 -0.3
v 0.1 1.3 -0.3
v 0.3 1 -0.3
v 0.3 1.1 -0.3
v 0.4 1 -0.3
v 0.4 1.1 -0.3
v 0.3 1.3 -0.6
v 0.3 1.5 -0.6
v 0.3 1.7 -0.6
v 0.3 2.2 -0.6
v 0.4 1.3 -0.6
v 0.4 1.5 -0.6
v 0.4 1.7 -0.6
v 0.4 2.2 -0.6
v 0.3 1.5 -0.7
v 0.3 1.7 -0.7
v 0.4 1.5 -0.7
v 0.4 1.7 -0.7
v -0.2 0 -0.8
v -0.2 0.2 -0.8
v -0.2 0.4 -0.8
v -0.2 0.9 -0.8
v -0.2 1.2 -0.8
v -0.2 1.3 -0.8
v -0.0999999 0.2 -0.8
v -0.0999999 0.3 -0.8
v -0.0999999 0.9 -0.8
v -0.0999999 1.1 -0.8
v -0.0999999 1.2 -0.8
v -0.0999999 1.3 -0.8
v 5.96046e-08 0.3 -0.8
v 5.96046e-08 0.4 -0.8
v 5.96046e-08 1.1 -0.8
v 5.96046e-08 1.3 -0.8
v 0.1 0 -0.8
v 0.1 0.3 -0.8
v 0.1 0.4 -0.8
v 0.1 1.1 -0.8
v 0.2 0 -0.8
v 0.2 0.3 -0.8
v 0.2 0.6 -0.8
v 0.2 0.9 -0.8
v 0.3 0 -0.8
v 0.3 0.2 -0.8
v 0.3 0.5 -0.8
v 0.3 0.6 -0.8
v 0.3 0.9 -0.8
v 0.3 1 -0.8
v 0.4 0 -0.8
v 0.4 0.2 -0.8
v 0.4 0.3 -0.8
v 0.4 0.4 -0.8
v 0.4 0.5 -0.8
v 0.4 0.6 -0.8
v 0.4 1.1 -0.8
v 0.4 1.3 -0.8
v 0.5 0.3 -0.8
v 0.5 0.4 -0.8
v 0.5 0.5 -0.8
v 0.5 0.6 -0.8
v 0.5 0.9 -0.8
v 0.5 1 -0.8
v 0.5 1.1 -0.8
v 0.5 1.3 -0.8
v 0.6 0 -0.8
v 0.6 0.2 -0.8
v 0.6 0.6 -0.8
v 0.6 1 -0.8
v 0.6 1.1 -0.8
v 0.6 1.3 -0.8
v -0.2 0 -0.1
v 5.96046e-08 0 -0.1
v 0.1 0 -0.1
v 0.2 0 -0.1
v 0.3 0 -0.1
v 0.5 0 -0.1
v 0.6 0 -0.1
v 5.96046e-08 0 -0.2
v 0.1 0 -0.2
v 0.2 0 -0.2
v 0.3 0 -0.2
v 0.5 0 -0.2
v 0.6 0 -0.2
v -0.2 0 -0.4
v -0.0999999 0 -0.4
v 0.5 0 -0.4
v 0.6 0 -0.4
v -0.2 0 -0.5
v -0.0999999 0 -0.5
v 0.5 0 -0.5
v 0.6 0 -0.5
v -0.2 0 -0.6
v -0.0999999 0 -0.6
v 0.5 0 -0.6
v 0.6 0 -0.6
v -0.2 0 -0.7
v -0.0999999 0 -0.7
v 0.1 0 -0.7
v 0.2 0 -0.7
v 0.3 0 -0.7
v 0.4 0 -0.7
v 0.5 0 -0.7
v 0.6 0 -0.7
v -0.2 0 -0.8
v 0.1 0 -0.8
v 0.2 0 -0.8
v 0.3 0 -0.8
v 0.4 0 -0.8
v 0.6 0 -0.8
v 0.3 1.1 -0.3
v 0.4 1.1 -0.3
v 0.3 1.1 -0.6
v 0.4 1.1 -0.6
v 0.3 1.5 -0.6
v 0.4 1.5 -0.6
v 0.3 1.5 -0.7
v 0.4 1.5 -0.7
v 0.3 1.6 -0.3
v 0.4 1.6 -0.3
v 0.3 1.6 -0.4
v 0.4 1.6 -0.4
v 5.96046e-08 0.9 -0.3
v 0.1 0.9 -0.3
v 5.96046e-08 0.9 -0.6
v 0.1 0.9 -0.6
v 0.3 1 -0.3
v 0.4 1 -0.3
v 0.3 1 -0.6
v 0.4 1 -0.6
v -0.2 1.3 -0.1
v 5.96046e-08 1.3 -0.1
v 0.2 1.3 -0.1
v 0.3 1.3 -0.1
v 0.4 1.3 -0.1
v 0.5 1.3 -0.1
v 0.6 1.3 -0.1
v -0.2 1.3 -0.2
v 5.96046e-08 1.3 -0.2
v 0.2 1.3 -0.2
v 0.3 1.3 -0.2
v 0.4 1.3 -0.2
v 0.5 1.3 -0.2
v 0.6 1.3 -0.2
v -0.2 1.3 -0.3
v -0.0999999 1.3 -0.3
v 5.96046e-08 1.3 -0.3
v 0.1 1.3 -0.3
v 0.2 1.3 -0.3
v 0.3 1.3 -0.3
v 0.4 1.3 -0.3
v 0.5 1.3 -0.3
v -0.0999999 1.3 -0.4
v 5.96046e-08 1.3 -0.4
v 0.3 1.3 -0.4
v 0.4 1.3 -0.4
v 0.3 1.3 -0.5
v 0.4 1.3 -0.5
v 5.96046e-08 1.3 -0.6
v 0.1 1.3 -0.6
v 0.2 1.3 -0.6
v 0.3 1.3 -0.6
v 0.4 1.3 -0.6
v 0.5 1.3 -0.6
v -0.0999999 1.3 -0.7
v 5.96046e-08 1.3 -0.7
v 0.1 1.3 -0.7
v -0.2 1.3 -0.8
v -0.0999999 1.3 -0.8
v 5.96046e-08 1.3 -0.8
v 0.4 1.3 -0.8
v 0.5 1.3 -0.8
v 0.6 1.3 -0.8
v 0.3 1.4 -0.3
v 0.4 1.4 -0.3
v 0.3 1.4 -0.4
v 0.4 1.4 -0.4
v 0.3 1.7 -0.3
v 0.4 1.7 -0.3
v 0.3 1.7 -0.4
v 0.4 1.7 -0.4
v 0.3 1.7 -0.6
v 0.4 1.7 -0.6
v 0.3 1.7 -0.7
v 0.4 1.7 -0.7
v 0.3 2.2 -0.4
v 0.4 2.2 -0.4
v 0.3 2.2 -0.6
v 0.4 2.2 -0.6

# faces
f 7/1/1 2/1/1 1/1/1
f 8/1/1 2/1/1 7/1/1
f 9/2/1 3/2/1 2/2/1
f 9/1/1 2/1/1 8/1/1
f 10/1/1 4/1/1 3/1/1
f 10/2/1 3/2/1 9/2/1
f 11/2/1 5/2/1 4/2/1
f 11/1/1 4/1/1 10/1/1
f 12/1/1 6/1/1 5/1/1
f 12/2/1 5/2/1 11/2/1
f 13/1/1 6/1/1 12/1/1
f 14/2/1 8/2/1 7/2/1
f 15/1/1 11/1/1 10/1/1
f 15/2/1 8/2/1 14/2/1
f 15/1/1 9/1/1 8/1/1
f 15/1/1 10/1/1 9/1/1
f 15/1/1 12/1/1 11/1/1
f 16/1/1 12/1/1 15/1/1
f 17/1/1 12/1/1 16/1/1
f 18/1/1 12/1/1 17/1/1
f 19/2/1 13/2/1 12/2/1
f 19/1/1 12/1/1 18/1/1
f 20/2/1 13/2/1 19/2/1
f 21/1/1 15/1/1 14/1/1
f 22/1/1 15/1/1 21/1/1
f 23/2/1 18/2/1 17/2/1
f 23/1/1 17/1/1 16/1/1
f 24/1/1 19/1/1 18/1/1
f 24/2/1 18/2/1 23/2/1
f 24/1/1 20/1/1 19/1/1
f 25/1/1 20/1/1 24/1/1
f 26/2/1 22/2/1 21/2/1
f 27/1/1 15/1/1 22/1/1
f 27/2/1 22/2/1 26/2/1
f 28/1/1 24/1/1 23/1/1
f 28/2/1 25/2/1 24/2/1
f 29/2/1 25/2/1 28/2/1
f 30/1/1 27/1/1 26/1/1
f 31/1/1 15/1/1 27/1/1
f 31/1/1 27/1/1 30/1/1
f 32/2/1 31/2/1 30/2/1
f 33/1/1 15/1/1 31/1/1
f 33/2/1 31/2/1 32/2/1
f 34/2/1 16/2/1 15/2/1
f 34/1/1 15/1/1 33/1/1
f 35/1/1 23/1/1 16/1/1
f 35/2/1 16/2/1 34/2/1
f 35/1/1 28/1/1 23/1/1
f 35/1/1 29/1/1 28/1/1
f 36/2/1 25/2/1 29/2/1
f 36/1/1 29/1/1 35/1/1
f 37/2/1 25/2/1 36/2/1
f 38/1/1 33/1/1 32/1/1
f 39/2/1 34/2/1 33/2/1
f 39/1/1 33/1/1 38/1/1
f 40/1/1 35/1/1 34/1/1
f 40/2/1 34/2/1 39/2/1
f 40/1/1 36/1/1 35/1/1
f 40/1/1 37/1/1 36/1/1
f 41/1/1 37/1/1 40/1/1
f 44/2/1 43/2/1 42/2/1
f 45/2/1 44/2/1 42/2/1
f 46/2/1 44/2/1 45/2/1
f 51/4/1 48/4/1 47/4/1
f 52/3/1 49/3/1 48/3/1
f 52/4/1 48/4/1 51/4/1
f 53/4/1 50/4/1 49/4/1
f 53/3/1 49/3/1 52/3/1
f 54/4/1 50/4/1 53/4/1
f 54/4/1 53/4/1 52/4/1
f 57/4/1 54/4/1 52/4/1
f 58/6/1 55/6/1 54/6/1
f 58/4/1 54/4/1 57/4/1
f 59/6/1 57/6/1 56/6/1
f 59/6/1 58/6/1 57/6/1
f 60/6/1 58/6/1 59/6/1
f 61/6/1 55/6/1 58/6/1
f 61/6/1 58/6/1 60/6/1
f 62/6/1 55/6/1 61/6/1
f 63/6/1 61/6/1 60/6/1
f 64/6/1 61/6/1 63/6/1
f 65/3/1 64/3/1 63/3/1
f 66/6/1 61/6/1 64/6/1
f 66/3/1 64/3/1 65/3/1
f 67/6/1 66/6/1 65/6/1
f 68/6/1 61/6/1 66/6/1
f 68/6/1 66/6/1 67/6/1
f 69/3/1 68/3/1 67/3/1
f 70/6/1 61/6/1 68/6/1
f 70/3/1 68/3/1 69/3/1
f 71/6/1 70/6/1 69/6/1
f 72/6/1 61/6/1 70/6/1
f 72/6/1 70/6/1 71/6/1
f 75/1/1 74/1/1 73/1/1
f 76/1/1 74/1/1 75/1/1
f 77/1/2 78/1/2 79/1/2
f 79/1/2 78/1/2 80/1/2
f 80/1/2 78/1/2 81/1/2
f 79/2/2 80/2/2 82/2/2
f 80/1/2 81/1/2 83/1/2
f 82/2/2 80/2/2 83/2/2
f 83/1/2 81/1/2 84/1/2
f 85/1/2 86/1/2 87/1/2
f 87/1/2 86/1/2 88/1/2
f 89/4/2 90/4/2 93/4/2
f 90/3/2 91/3/2 94/3/2
f 93/4/2 90/4/2 94/4/2
f 91/4/2 92/4/2 95/4/2
f 94/3/2 91/3/2 95/3/2
f 95/4/2 92/4/2 96/4/2
f 94/4/2 95/4/2 96/4/2
f 94/4/2 96/4/2 99/4/2
f 96/6/2 97/6/2 100/6/2
f 99/4/2 96/4/2 100/4/2
f 98/6/2 99/6/2 101/6/2
f 99/6/2 100/6/2 101/6/2
f 101/6/2 100/6/2 102/6/2
f 100/6/2 97/6/2 103/6/2
f 102/6/2 100/6/2 103/6/2
f 103/6/2 97/6/2 104/6/2
f 102/6/2 103/6/2 105/6/2
f 105/6/2 103/6/2 106/6/2
f 105/3/2 106/3/2 107/3/2
f 106/6/2 103/6/2 108/6/2
f 107/3/2 106/3/2 108/3/2
f 107/6/2 108/6/2 109/6/2
f 108/6/2 103/6/2 110/6/2
f 109/6/2 108/6/2 110/6/2
f 109/3/2 110/3/2 111/3/2
f 110/6/2 103/6/2 112/6/2
f 111/3/2 110/3/2 112/3/2
f 111/6/2 112/6/2 113/6/2
f 112/6/2 103/6/2 114/6/2
f 113/6/2 112/6/2 114/6/2
f 115/2/2 116/2/2 122/2/2
f 116/1/2 117/1/2 123/1/2
f 122/2/2 116/2/2 123/2/2
f 123/1/2 117/1/2 124/1/2
f 118/1/2 119/1/2 125/1/2
f 119/2/2 120/2/2 125/2/2
f 120/1/2 121/1/2 126/1/2
f 125/2/2 120/2/2 126/2/2
f 126/1/2 121/1/2 127/1/2
f 123/2/2 124/2/2 128/2/2
f 122/1/2 123/1/2 128/1/2
f 124/1/2 117/1/2 129/1/2
f 128/2/2 124/2/2 129/2/2
f 117/2/2 118/2/2 130/2/2
f 129/1/2 117/1/2 130/1/2
f 128/1/2 129/1/2 131/1/2
f 129/2/2 130/2/2 131/2/2
f 118/1/2 125/1/2 132/1/2
f 131/2/2 130/2/2 132/2/2
f 130/2/2 118/2/2 132/2/2
f 125/1/2 126/1/2 132/1/2
f 128/1/2 131/1/2 133/1/2
f 131/1/2 132/1/2 133/1/2
f 133/1/2 132/1/2 134/1/2
f 132/1/2 126/1/2 135/1/2
f 134/1/2 132/1/2 135/1/2
f 126/2/2 127/2/2 136/2/2
f 135/1/2 126/1/2 136/1/2
f 136/2/2 127/2/2 137/2/2
f 122/1/2 128/1/2 138/1/2
f 128/1/2 133/1/2 138/1/2
f 138/1/2 133/1/2 139/1/2
f 133/2/2 134/2/2 140/2/2
f 134/1/2 135/1/2 140/1/2
f 135/2/2 136/2/2 141/2/2
f 140/1/2 135/1/2 141/1/2
f 133/2/2 140/2/2 142/2/2
f 140/2/2 141/2/2 142/2/2
f 141/2/2 136/2/2 143/2/2
f 142/2/2 141/2/2 143/2/2
f 139/1/2 133/1/2 144/1/2
f 133/2/2 142/2/2 144/2/2
f 142/1/2 143/1/2 145/1/2
f 144/2/2 142/2/2 145/2/2
f 145/1/2 143/1/2 146/1/2
f 143/2/2 136/2/2 147/2/2
f 136/1/2 137/1/2 147/1/2
f 147/1/2 137/1/2 148/1/2
f 138/2/2 139/2/2 149/2/2
f 139/1/2 144/1/2 149/1/2
f 144/1/2 145/1/2 149/1/2
f 145/2/2 146/2/2 150/2/2
f 149/1/2 145/1/2 150/1/2
f 147/2/2 148/2/2 151/2/2
f 143/2/2 147/2/2 151/2/2
f 151/2/2 148/2/2 152/2/2
f 138/2/2 149/2/2 153/2/2
f 149/2/2 150/2/2 153/2/2
f 146/1/2 143/1/2 154/1/2
f 153/2/2 150/2/2 154/2/2
f 150/2/2 146/2/2 154/2/2
f 143/2/2 151/2/2 155/2/2
f 154/1/2 143/1/2 155/1/2
f 151/1/2 152/1/2 156/1/2
f 155/2/2 151/2/2 156/2/2
f 138/2/2 153/2/2 157/2/2
f 153/1/2 154/1/2 158/1/2
f 157/2/2 153/2/2 158/2/2
f 154/1/2 155/1/2 158/1/2
f 155/1/2 156/1/2 158/1/2
f 156/1/2 152/1/2 159/1/2
f 158/1/2 156/1/2 159/1/2
f 168/1/3 161/1/3 160/1/3
f 168/2/3 162/2/3 161/2/3
f 169/1/3 163/1/3 162/1/3
f 169/2/3 162/2/3 168/2/3
f 170/1/3 163/1/3 169/1/3
f 171/2/3 164/2/3 163/2/3
f 171/1/3 163/1/3 170/1/3
f 172/1/3 165/1/3 164/1/3
f 172/2/3 164/2/3 171/2/3
f 173/2/3 166/2/3 165/2/3
f 173/1/3 165/1/3 172/1/3
f 174/1/3 167/1/3 166/1/3
f 174/2/3 166/2/3 173/2/3
f 175/1/3 168/1/3 160/1/3
f 175/1/3 169/1/3 168/1/3
f 176/2/3 170/2/3 169/2/3
f 176/1/3 169/1/3 175/1/3
f 177/1/3 173/1/3 172/1/3
f 177/1/3 172/1/3 171/1/3
f 177/1/3 171/1/3 170/1/3
f 177/1/3 174/1/3 173/1/3
f 178/1/3 167/1/3 174/1/3
f 178/1/3 174/1/3 177/1/3
f 179/2/3 176/2/3 175/2/3
f 180/2/3 170/2/3 176/2/3
f 180/2/3 176/2/3 179/2/3
f 180/1/3 177/1/3 170/1/3
f 181/1/3 180/1/3 179/1/3
f 182/1/3 180/1/3 181/1/3
f 183/1/3 177/1/3 180/1/3
f 183/1/3 180/1/3 182/1/3
f 184/2/3 178/2/3 177/2/3
f 184/1/3 177/1/3 183/1/3
f 185/2/3 178/2/3 184/2/3
f 186/2/3 182/2/3 181/2/3
f 187/1/3 183/1/3 182/1/3
f 187/2/3 182/2/3 186/2/3
f 188/2/3 184/2/3 183/2/3
f 188/1/3 183/1/3 187/1/3
f 189/2/3 184/2/3 188/2/3
f 190/2/3 184/2/3 189/2/3
f 191/1/3 185/1/3 184/1/3
f 191/2/3 184/2/3 190/2/3
f 192/1/3 185/1/3 191/1/3
f 193/1/3 185/1/3 192/1/3
f 194/1/3 187/1/3 186/1/3
f 194/2/3 188/2/3 187/2/3
f 195/2/3 188/2/3 194/2/3
f 196/1/3 189/1/3 188/1/3
f 196/2/3 188/2/3 195/2/3
f 197/2/3 190/2/3 189/2/3
f 197/1/3 189/1/3 196/1/3
f 198/1/3 191/1/3 190/1/3
f 198/2/3 190/2/3 197/2/3
f 198/1/3 192/1/3 191/1/3
f 199/2/3 193/2/3 192/2/3
f 199/1/3 192/1/3 198/1/3
f 200/2/3 193/2/3 199/2/3
f 201/1/3 195/1/3 194/1/3
f 201/1/3 194/1/3 186/1/3
f 202/1/3 195/1/3 201/1/3
f 203/2/3 196/2/3 195/2/3
f 203/1/3 195/1/3 202/1/3
f 203/2/3 197/2/3 196/2/3
f 204/1/3 198/1/3 197/1/3
f 204/2/3 197/2/3 203/2/3
f 204/1/3 200/1/3 199/1/3
f 204/1/3 199/1/3 198/1/3
f 205/1/3 200/1/3 204/1/3
f 206/1/3 200/1/3 205/1/3
f 207/2/3 202/2/3 201/2/3
f 208/1/3 203/1/3 202/1/3
f 208/2/3 202/2/3 207/2/3
f 208/1/3 204/1/3 203/1/3
f 208/1/3 205/1/3 204/1/3
f 209/2/3 206/2/3 205/2/3
f 209/1/3 205/1/3 208/1/3
f 210/2/3 206/2/3 209/2/3
f 215/4/3 212/4/3 211/4/3
f 216/4/3 212/4/3 215/4/3
f 217/6/3 214/6/3 213/6/3
f 218/6/3 214/6/3 217/6/3
f 227/4/3 220/4/3 219/4/3
f 228/4/3 220/4/3 227/4/3
f 229/6/3 222/6/3 221/6/3
f 230/3/3 223/3/3 222/3/3
f 230/6/3 222/6/3 229/6/3
f 231/6/3 224/6/3 223/6/3
f 231/3/3 223/3/3 230/3/3
f 232/3/3 225/3/3 224/3/3
f 232/6/3 224/6/3 231/6/3
f 233/6/3 226/6/3 225/6/3
f 233/3/3 225/3/3 232/3/3
f 234/6/3 226/6/3 233/6/3
f 238/1/3 236/1/3 235/1/3
f 239/2/3 237/2/3 236/2/3
f 239/1/3 236/1/3 238/1/3
f 240/2/3 237/2/3 239/2/3
f 243/1/3 242/1/3 241/1/3
f 244/1/3 242/1/3 243/1/3
f 245/1/4 246/1/4 248/1/4
f 246/1/4 247/1/4 248/1/4
f 248/1/4 247/1/4 249/1/4
f 250/1/4 251/1/4 252/1/4
f 252/1/4 251/1/4 253/1/4
f 254/4/4 255/4/4 258/4/4
f 258/4/4 255/4/4 259/4/4
f 256/6/4 257/6/4 260/6/4
f 260/6/4 257/6/4 261/6/4
f 262/6/4 263/6/4 264/6/4
f 264/6/4 263/6/4 265/6/4
f 266/1/4 267/1/4 272/1/4
f 267/2/4 268/2/4 272/2/4
f 272/2/4 268/2/4 273/2/4
f 269/2/4 270/2/4 274/2/4
f 268/1/4 269/1/4 274/1/4
f 274/2/4 270/2/4 275/2/4
f 270/1/4 271/1/4 276/1/4
f 275/2/4 270/2/4 276/2/4
f 276/1/4 271/1/4 277/1/4
f 273/2/4 268/2/4 278/2/4
f 272/1/4 273/1/4 278/1/4
f 274/1/4 275/1/4 279/1/4
f 278/2/4 268/2/4 279/2/4
f 268/1/4 274/1/4 279/1/4
f 276/2/4 277/2/4 280/2/4
f 279/1/4 275/1/4 280/1/4
f 275/2/4 276/2/4 280/2/4
f 280/2/4 277/2/4 281/2/4
f 272/1/4 278/1/4 282/1/4
f 278/1/4 279/1/4 282/1/4
f 266/1/4 272/1/4 282/1/4
f 282/1/4 279/1/4 283/1/4
f 279/2/4 280/2/4 284/2/4
f 283/1/4 279/1/4 284/1/4
f 280/1/4 281/1/4 285/1/4
f 284/2/4 280/2/4 285/2/4
f 282/2/4 283/2/4 286/2/4
f 283/1/4 284/1/4 287/1/4
f 286/2/4 283/2/4 287/2/4
f 284/1/4 285/1/4 287/1/4
f 287/1/4 285/1/4 288/1/4
f 288/1/4 285/1/4 289/1/4
f 286/1/4 287/1/4 290/1/4
f 287/1/4 288/1/4 290/1/4
f 290/1/4 288/1/4 291/1/4
f 291/1/4 288/1/4 292/1/4
f 288/2/4 289/2/4 293/2/4
f 292/1/4 288/1/4 293/1/4
f 289/1/4 285/1/4 294/1/4
f 293/2/4 289/2/4 294/2/4
f 294/1/4 285/1/4 295/1/4
f 290/2/4 291/2/4 296/2/4
f 291/1/4 292/1/4 297/1/4
f 296/2/4 291/2/4 297/2/4
f 297/1/4 292/1/4 298/1/4
f 298/1/4 292/1/4 299/1/4
f 292/2/4 293/2/4 300/2/4
f 299/1/4 292/1/4 300/1/4
f 293/1/4 294/1/4 301/1/4
f 300/2/4 293/2/4 301/2/4
f 285/1/4 281/1/4 302/1/4
f 295/1/4 285/1/4 302/1/4
f 302/1/4 281/1/4 303/1/4
f 298/1/4 299/1/4 304/1/4
f 297/2/4 298/2/4 304/2/4
f 299/2/4 300/2/4 305/2/4
f 304/1/4 299/1/4 305/1/4
f 300/1/4 301/1/4 306/1/4
f 305/2/4 300/2/4 306/2/4
f 301/1/4 294/1/4 307/1/4
f 306/1/4 301/1/4 307/1/4
f 294/2/4 295/2/4 308/2/4
f 307/1/4 294/1/4 308/1/4
f 295/1/4 302/1/4 309/1/4
f 308/2/4 295/2/4 309/2/4
f 302/2/4 303/2/4 310/2/4
f 309/1/4 302/1/4 310/1/4
f 310/2/4 303/2/4 311/2/4
f 296/1/4 297/1/4 312/1/4
f 305/2/4 306/2/4 313/2/4
f 312/1/4 297/1/4 313/1/4
f 304/2/4 305/2/4 313/2/4
f 297/2/4 304/2/4 313/2/4
f 306/2/4 307/2/4 313/2/4
f 307/1/4 308/1/4 314/1/4
f 313/2/4 307/2/4 314/2/4
f 308/1/4 309/1/4 314/1/4
f 309/2/4 310/2/4 315/2/4
f 314/1/4 309/1/4 315/1/4
f 310/1/4 311/1/4 316/1/4
f 315/2/4 310/2/4 316/2/4
f 316/1/4 311/1/4 317/1/4
f 325/1/5 319/1/5 318/1/5
f 325/2/5 320/2/5 319/2/5
f 326/1/5 321/1/5 320/1/5
f 326/2/5 320/2/5 325/2/5
f 327/2/5 322/2/5 321/2/5
f 327/1/5 321/1/5 326/1/5
f 328/1/5 323/1/5 322/1/5
f 328/2/5 322/2/5 327/2/5
f 329/2/5 324/2/5 323/2/5
f 329/1/5 323/1/5 328/1/5
f 330/2/5 324/2/5 329/2/5
f 331/1/5 328/1/5 327/1/5
f 331/1/5 327/1/5 326/1/5
f 331/1/5 330/1/5 329/1/5
f 331/1/5 329/1/5 328/1/5
f 331/1/5 326/1/5 325/1/5
f 331/1/5 325/1/5 318/1/5
f 332/1/5 330/1/5 331/1/5
f 333/1/5 330/1/5 332/1/5
f 334/1/5 330/1/5 333/1/5
f 335/2/5 332/2/5 331/2/5
f 336/1/5 333/1/5 332/1/5
f 336/2/5 332/2/5 335/2/5
f 337/2/5 334/2/5 333/2/5
f 337/1/5 333/1/5 336/1/5
f 338/2/5 334/2/5 337/2/5
f 339/1/5 336/1/5 335/1/5
f 339/1/5 337/1/5 336/1/5
f 339/1/5 338/1/5 337/1/5
f 340/1/5 338/1/5 339/1/5
f 341/1/5 338/1/5 340/1/5
f 342/1/5 338/1/5 341/1/5
f 343/2/5 340/2/5 339/2/5
f 344/1/5 341/1/5 340/1/5
f 344/2/5 340/2/5 343/2/5
f 345/1/5 341/1/5 344/1/5
f 346/1/5 341/1/5 345/1/5
f 347/1/5 341/1/5 346/1/5
f 348/1/5 341/1/5 347/1/5
f 349/2/5 342/2/5 341/2/5
f 349/1/5 341/1/5 348/1/5
f 350/2/5 342/2/5 349/2/5
f 351/1/5 344/1/5 343/1/5
f 351/1/5 345/1/5 344/1/5
f 352/2/5 346/2/5 345/2/5
f 352/1/5 345/1/5 351/1/5
f 353/1/5 347/1/5 346/1/5
f 353/2/5 346/2/5 352/2/5
f 354/2/5 348/2/5 347/2/5
f 354/1/5 347/1/5 353/1/5
f 355/1/5 350/1/5 349/1/5
f 355/2/5 348/2/5 354/2/5
f 355/1/5 349/1/5 348/1/5
f 356/1/5 350/1/5 355/1/5
f 359/5/5 358/5/5 357/5/5
f 360/5/5 358/5/5 359/5/5
f 363/6/5 362/6/5 361/6/5
f 364/6/5 362/6/5 363/6/5
f 367/6/5 366/6/5 365/6/5
f 368/6/5 366/6/5 367/6/5
f 369/1/6 370/1/6 371/1/6
f 371/1/6 370/1/6 372/1/6
f 373/1/6 374/1/6 375/1/6
f 375/1/6 374/1/6 376/1/6
f 377/1/6 378/1/6 384/1/6
f 378/2/6 379/2/6 385/2/6
f 384/1/6 378/1/6 385/1/6
f 379/1/6 380/1/6 386/1/6
f 385/2/6 379/2/6 386/2/6
f 380/2/6 381/2/6 387/2/6
f 386/1/6 380/1/6 387/1/6
f 381/1/6 382/1/6 388/1/6
f 387/2/6 381/2/6 388/2/6
f 382/2/6 383/2/6 389/2/6
f 388/1/6 382/1/6 389/1/6
f 389/2/6 383/2/6 390/2/6
f 384/2/6 385/2/6 391/2/6
f 391/2/6 385/2/6 392/2/6
f 387/1/6 388/1/6 393/1/6
f 392/2/6 385/2/6 393/2/6
f 385/1/6 386/1/6 393/1/6
f 386/1/6 387/1/6 393/1/6
f 393/1/6 388/1/6 394/1/6
f 394/1/6 388/1/6 395/1/6
f 395/1/6 388/1/6 396/1/6
f 388/2/6 389/2/6 397/2/6
f 396/1/6 388/1/6 397/1/6
f 389/1/6 390/1/6 398/1/6
f 397/2/6 389/2/6 398/2/6
f 391/1/6 392/1/6 399/1/6
f 392/2/6 393/2/6 399/2/6
f 399/2/6 393/2/6 400/2/6
f 395/1/6 396/1/6 401/1/6
f 397/1/6 398/1/6 402/1/6
f 395/1/6 401/1/6 403/1/6
f 402/1/6 398/1/6 404/1/6
f 399/1/6 400/1/6 405/1/6
f 394/2/6 395/2/6 406/2/6
f 395/1/6 403/1/6 407/1/6
f 406/2/6 395/2/6 407/2/6
f 407/1/6 403/1/6 408/1/6
f 404/1/6 398/1/6 409/1/6
f 398/1/6 390/1/6 410/1/6
f 409/1/6 398/1/6 410/1/6
f 399/1/6 405/1/6 411/1/6
f 391/1/6 399/1/6 411/1/6
f 405/2/6 406/2/6 412/2/6
f 411/1/6 405/1/6 412/1/6
f 408/1/6 409/1/6 413/1/6
f 412/2/6 406/2/6 413/2/6
f 407/1/6 408/1/6 413/1/6
f 406/1/6 407/1/6 413/1/6
f 391/1/6 411/1/6 414/1/6
f 411/2/6 412/2/6 415/2/6
f 414/1/6 411/1/6 415/1/6
f 412/1/6 413/1/6 416/1/6
f 415/2/6 412/2/6 416/2/6
f 413/1/6 409/1/6 417/1/6
f 416/1/6 413/1/6 417/1/6
f 409/2/6 410/2/6 417/2/6
f 410/1/6 390/1/6 418/1/6
f 417/2/6 410/2/6 418/2/6
f 418/1/6 390/1/6 419/1/6
f 420/4/6 421/4/6 422/4/6
f 422/4/6 421/4/6 423/4/6
f 424/6/6 425/6/6 426/6/6
f 426/6/6 425/6/6 427/6/6
f 428/6/6 429/6/6 430/6/6
f 430/6/6 429/6/6 431/6/6
f 432/6/6 433/6/6 434/6/6
f 434/6/6 433/6/6 435/6/6
