# MagicaVoxel @ Ephtracy

# group
o 

# material
mtllib Knife.vox.mtl
usemtl palette

# normals
vn -1 0 0
vn 1 0 0
vn 0 0 1
vn 0 0 -1
vn 0 -1 0
vn 0 1 0

# texcoords
vt 0.970703 0.5
vt 0.978516 0.5
vt 0.994141 0.5

# verts
v 0.3 0.6 -0.5
v 0.3 0.6 -0.6
v 0.3 0.7 -0.4
v 0.3 0.7 -0.5
v 0.3 0.8 -0.5
v 0.3 0.8 -0.6
v 0.3 0.9 -0.4
v 0.3 0.9 -0.5
v 0.3 0.9 -0.6
v 0.3 1 -0.3
v 0.3 1 -0.4
v 0.3 1 -0.5
v 0.3 1.1 -0.5
v 0.3 1.1 -0.6
v 0.3 1.2 -0.4
v 0.3 1.2 -0.5
v 0.3 1.2 -0.6
v 0.3 1.3 -0.3
v 0.3 1.3 -0.4
v 0.3 1.3 -0.5
v 0.3 1.4 -0.3
v 0.3 1.4 -0.4
v 0.3 1.5 -0.6
v 0.3 1.5 -0.7
v 0.3 1.6 -0.3
v 0.3 1.6 -0.4
v 0.3 1.6 -0.6
v 0.3 1.7 -0.3
v 0.3 1.7 -0.4
v 0.3 1.7 -0.6
v 0.3 1.7 -0.7
v 0.3 1.8 -0.4
v 0.3 1.8 -0.5
v 0.3 1.9 -0.4
v 0.3 1.9 -0.5
v 0.3 2 -0.4
v 0.3 2 -0.5
v 0.3 2.1 -0.4
v 0.3 2.1 -0.5
v 0.3 2.2 -0.4
v 0.3 2.2 -0.6
v 0.4 0.6 -0.5
v 0.4 0.6 -0.6
v 0.4 0.7 -0.4
v 0.4 0.7 -0.5
v 0.4 0.8 -0.5
v 0.4 0.8 -0.6
v 0.4 0.9 -0.4
v 0.4 0.9 -0.5
v 0.4 0.9 -0.6
v 0.4 1 -0.3
v 0.4 1 -0.4
v 0.4 1 -0.5
v 0.4 1.1 -0.5
v 0.4 1.1 -0.6
v 0.4 1.2 -0.4
v 0.4 1.2 -0.5
v 0.4 1.2 -0.6
v 0.4 1.3 -0.3
v 0.4 1.3 -0.4
v 0.4 1.3 -0.5
v 0.4 1.4 -0.3
v 0.4 1.4 -0.4
v 0.4 1.5 -0.6
v 0.4 1.5 -0.7
v 0.4 1.6 -0.3
v 0.4 1.6 -0.4
v 0.4 1.6 -0.6
v 0.4 1.7 -0.3
v 0.4 1.7 -0.4
v 0.4 1.7 -0.6
v 0.4 1.7 -0.7
v 0.4 1.8 -0.4
v 0.4 1.8 -0.5
v 0.4 1.9 -0.4
v 0.4 1.9 -0.5
v 0.4 2 -0.4
v 0.4 2 -0.5
v 0.4 2.1 -0.4
v 0.4 2.1 -0.5
v 0.4 2.2 -0.4
v 0.4 2.2 -0.6
v 0.3 1 -0.3
v 0.3 1.3 -0.3
v 0.3 1.4 -0.3
v 0.3 1.6 -0.3
v 0.3 1.7 -0.3
v 0.4 1 -0.3
v 0.4 1.3 -0.3
v 0.4 1.4 -0.3
v 0.4 1.6 -0.3
v 0.4 1.7 -0.3
v 0.3 0.7 -0.4
v 0.3 0.9 -0.4
v 0.3 1 -0.4
v 0.3 1.4 -0.4
v 0.3 1.6 -0.4
v 0.3 1.7 -0.4
v 0.3 1.8 -0.4
v 0.3 1.9 -0.4
v 0.3 2 -0.4
v 0.3 2.1 -0.4
v 0.3 2.2 -0.4
v 0.4 0.7 -0.4
v 0.4 0.9 -0.4
v 0.4 1 -0.4
v 0.4 1.4 -0.4
v 0.4 1.6 -0.4
v 0.4 1.7 -0.4
v 0.4 1.8 -0.4
v 0.4 1.9 -0.4
v 0.4 2 -0.4
v 0.4 2.1 -0.4
v 0.4 2.2 -0.4
v 0.3 0.6 -0.5
v 0.3 0.7 -0.5
v 0.4 0.6 -0.5
v 0.4 0.7 -0.5
v 0.3 0.6 -0.6
v 0.3 0.8 -0.6
v 0.3 0.9 -0.6
v 0.3 1.1 -0.6
v 0.3 1.2 -0.6
v 0.3 1.5 -0.6
v 0.3 1.7 -0.6
v 0.3 2.2 -0.6
v 0.4 0.6 -0.6
v 0.4 0.8 -0.6
v 0.4 0.9 -0.6
v 0.4 1.1 -0.6
v 0.4 1.2 -0.6
v 0.4 1.5 -0.6
v 0.4 1.7 -0.6
v 0.4 2.2 -0.6
v 0.3 1.5 -0.7
v 0.3 1.7 -0.7
v 0.4 1.5 -0.7
v 0.4 1.7 -0.7
v 0.3 0.6 -0.5
v 0.4 0.6 -0.5
v 0.3 0.6 -0.6
v 0.4 0.6 -0.6
v 0.3 0.7 -0.4
v 0.4 0.7 -0.4
v 0.3 0.7 -0.5
v 0.4 0.7 -0.5
v 0.3 1 -0.3
v 0.4 1 -0.3
v 0.3 1 -0.4
v 0.4 1 -0.4
v 0.3 1.5 -0.6
v 0.4 1.5 -0.6
v 0.3 1.5 -0.7
v 0.4 1.5 -0.7
v 0.3 1.6 -0.3
v 0.4 1.6 -0.3
v 0.3 1.6 -0.4
v 0.4 1.6 -0.4
v 0.3 1.4 -0.3
v 0.4 1.4 -0.3
v 0.3 1.4 -0.4
v 0.4 1.4 -0.4
v 0.3 1.7 -0.3
v 0.4 1.7 -0.3
v 0.3 1.7 -0.4
v 0.4 1.7 -0.4
v 0.3 1.7 -0.6
v 0.4 1.7 -0.6
v 0.3 1.7 -0.7
v 0.4 1.7 -0.7
v 0.3 2.2 -0.4
v 0.4 2.2 -0.4
v 0.3 2.2 -0.6
v 0.4 2.2 -0.6

# faces
f 4/2/1 2/2/1 1/2/1
f 5/2/1 2/2/1 4/2/1
f 5/2/1 4/2/1 3/2/1
f 6/2/1 2/2/1 5/2/1
f 7/2/1 5/2/1 3/2/1
f 8/1/1 6/1/1 5/1/1
f 8/2/1 5/2/1 7/2/1
f 9/1/1 6/1/1 8/1/1
f 11/1/1 8/1/1 7/1/1
f 12/2/1 9/2/1 8/2/1
f 12/1/1 8/1/1 11/1/1
f 13/2/1 11/2/1 10/2/1
f 13/2/1 9/2/1 12/2/1
f 13/2/1 12/2/1 11/2/1
f 14/2/1 9/2/1 13/2/1
f 15/2/1 13/2/1 10/2/1
f 16/1/1 14/1/1 13/1/1
f 16/2/1 13/2/1 15/2/1
f 17/1/1 14/1/1 16/1/1
f 18/2/1 15/2/1 10/2/1
f 19/1/1 16/1/1 15/1/1
f 19/2/1 15/2/1 18/2/1
f 20/2/1 17/2/1 16/2/1
f 20/1/1 16/1/1 19/1/1
f 21/1/1 19/1/1 18/1/1
f 22/2/1 20/2/1 19/2/1
f 22/1/1 19/1/1 21/1/1
f 23/2/1 17/2/1 20/2/1
f 23/2/1 20/2/1 22/2/1
f 26/2/1 23/2/1 22/2/1
f 27/3/1 24/3/1 23/3/1
f 27/2/1 23/2/1 26/2/1
f 28/3/1 26/3/1 25/3/1
f 28/3/1 27/3/1 26/3/1
f 29/3/1 27/3/1 28/3/1
f 30/3/1 24/3/1 27/3/1
f 30/3/1 27/3/1 29/3/1
f 31/3/1 24/3/1 30/3/1
f 32/3/1 30/3/1 29/3/1
f 33/3/1 30/3/1 32/3/1
f 34/1/1 33/1/1 32/1/1
f 35/3/1 30/3/1 33/3/1
f 35/1/1 33/1/1 34/1/1
f 36/3/1 35/3/1 34/3/1
f 37/3/1 30/3/1 35/3/1
f 37/3/1 35/3/1 36/3/1
f 38/1/1 37/1/1 36/1/1
f 39/3/1 30/3/1 37/3/1
f 39/1/1 37/1/1 38/1/1
f 40/3/1 39/3/1 38/3/1
f 41/3/1 30/3/1 39/3/1
f 41/3/1 39/3/1 40/3/1
f 42/2/2 43/2/2 45/2/2
f 45/2/2 43/2/2 46/2/2
f 44/2/2 45/2/2 46/2/2
f 46/2/2 43/2/2 47/2/2
f 44/2/2 46/2/2 48/2/2
f 46/1/2 47/1/2 49/1/2
f 48/2/2 46/2/2 49/2/2
f 49/1/2 47/1/2 50/1/2
f 48/1/2 49/1/2 52/1/2
f 49/2/2 50/2/2 53/2/2
f 52/1/2 49/1/2 53/1/2
f 51/2/2 52/2/2 54/2/2
f 53/2/2 50/2/2 54/2/2
f 52/2/2 53/2/2 54/2/2
f 54/2/2 50/2/2 55/2/2
f 51/2/2 54/2/2 56/2/2
f 54/1/2 55/1/2 57/1/2
f 56/2/2 54/2/2 57/2/2
f 57/1/2 55/1/2 58/1/2
f 51/2/2 56/2/2 59/2/2
f 56/1/2 57/1/2 60/1/2
f 59/2/2 56/2/2 60/2/2
f 57/2/2 58/2/2 61/2/2
f 60/1/2 57/1/2 61/1/2
f 59/1/2 60/1/2 62/1/2
f 60/2/2 61/2/2 63/2/2
f 62/1/2 60/1/2 63/1/2
f 61/2/2 58/2/2 64/2/2
f 63/2/2 61/2/2 64/2/2
f 63/2/2 64/2/2 67/2/2
f 64/3/2 65/3/2 68/3/2
f 67/2/2 64/2/2 68/2/2
f 66/3/2 67/3/2 69/3/2
f 67/3/2 68/3/2 69/3/2
f 69/3/2 68/3/2 70/3/2
f 68/3/2 65/3/2 71/3/2
f 70/3/2 68/3/2 71/3/2
f 71/3/2 65/3/2 72/3/2
f 70/3/2 71/3/2 73/3/2
f 73/3/2 71/3/2 74/3/2
f 73/1/2 74/1/2 75/1/2
f 74/3/2 71/3/2 76/3/2
f 75/1/2 74/1/2 76/1/2
f 75/3/2 76/3/2 77/3/2
f 76/3/2 71/3/2 78/3/2
f 77/3/2 76/3/2 78/3/2
f 77/1/2 78/1/2 79/1/2
f 78/3/2 71/3/2 80/3/2
f 79/1/2 78/1/2 80/1/2
f 79/3/2 80/3/2 81/3/2
f 80/3/2 71/3/2 82/3/2
f 81/3/2 80/3/2 82/3/2
f 88/2/3 84/2/3 83/2/3
f 89/1/3 85/1/3 84/1/3
f 89/2/3 84/2/3 88/2/3
f 90/1/3 85/1/3 89/1/3
f 91/3/3 87/3/3 86/3/3
f 92/3/3 87/3/3 91/3/3
f 104/2/3 94/2/3 93/2/3
f 105/1/3 95/1/3 94/1/3
f 105/2/3 94/2/3 104/2/3
f 106/1/3 95/1/3 105/1/3
f 107/2/3 97/2/3 96/2/3
f 108/2/3 97/2/3 107/2/3
f 109/3/3 99/3/3 98/3/3
f 110/1/3 100/1/3 99/1/3
f 110/3/3 99/3/3 109/3/3
f 111/3/3 101/3/3 100/3/3
f 111/1/3 100/1/3 110/1/3
f 112/1/3 102/1/3 101/1/3
f 112/3/3 101/3/3 111/3/3
f 113/3/3 103/3/3 102/3/3
f 113/1/3 102/1/3 112/1/3
f 114/3/3 103/3/3 113/3/3
f 117/2/3 116/2/3 115/2/3
f 118/2/3 116/2/3 117/2/3
f 119/2/4 120/2/4 127/2/4
f 120/1/4 121/1/4 128/1/4
f 127/2/4 120/2/4 128/2/4
f 121/2/4 122/2/4 129/2/4
f 128/1/4 121/1/4 129/1/4
f 122/1/4 123/1/4 130/1/4
f 129/2/4 122/2/4 130/2/4
f 123/2/4 124/2/4 131/2/4
f 130/1/4 123/1/4 131/1/4
f 131/2/4 124/2/4 132/2/4
f 125/3/4 126/3/4 133/3/4
f 133/3/4 126/3/4 134/3/4
f 135/3/4 136/3/4 137/3/4
f 137/3/4 136/3/4 138/3/4
f 141/2/5 140/2/5 139/2/5
f 142/2/5 140/2/5 141/2/5
f 145/2/5 144/2/5 143/2/5
f 146/2/5 144/2/5 145/2/5
f 149/2/5 148/2/5 147/2/5
f 150/2/5 148/2/5 149/2/5
f 153/3/5 152/3/5 151/3/5
f 154/3/5 152/3/5 153/3/5
f 157/3/5 156/3/5 155/3/5
f 158/3/5 156/3/5 157/3/5
f 159/1/6 160/1/6 161/1/6
f 161/1/6 160/1/6 162/1/6
f 163/3/6 164/3/6 165/3/6
f 165/3/6 164/3/6 166/3/6
f 167/3/6 168/3/6 169/3/6
f 169/3/6 168/3/6 170/3/6
f 171/3/6 172/3/6 173/3/6
f 173/3/6 172/3/6 174/3/6
